<?xml version="1.0" encoding="utf-8"?>
<!-- Generator: Adobe Illustrator 26.1.0, SVG Export Plug-In . SVG Version: 6.00 Build 0)  -->
<svg version="1.1" id="Layer_1" xmlns="http://www.w3.org/2000/svg" xmlns:xlink="http://www.w3.org/1999/xlink" x="0px" y="0px"
	 viewBox="0 0 357.43 363.68" style="enable-background:new 0 0 357.43 363.68;" xml:space="preserve">
<style type="text/css">
	.st0{opacity:0.2;fill-rule:evenodd;clip-rule:evenodd;fill:#71694A;}
	.st1{fill-rule:evenodd;clip-rule:evenodd;fill:#71694A;}
	.st2{clip-path:url(#SVGID_00000024720302481664459320000011171490537478980002_);}
	.st3{clip-path:url(#SVGID_00000181783829984100389770000013856110978595560622_);}
	.st4{clip-path:url(#SVGID_00000181783361162620750600000004414596778036924322_);}
	.st5{clip-path:url(#SVGID_00000041285910011464669450000004377826030096290721_);}
	.st6{fill:#080805;}
	
		.st7{clip-path:url(#SVGID_00000000909317303394509150000003536947638921148322_);fill:url(#SVGID_00000052792827083259954200000006150275326499464126_);}
	
		.st8{clip-path:url(#SVGID_00000097480212692432026620000014821732909425305492_);fill:url(#SVGID_00000135653322108176332530000007146615657979185581_);}
	
		.st9{clip-path:url(#SVGID_00000018211036554070651070000015953402049539571595_);fill:url(#SVGID_00000108289363532583568690000010880381996439691143_);}
	
		.st10{clip-path:url(#SVGID_00000037654402814175850780000004523241735602315162_);fill:url(#SVGID_00000014625019057389058280000000043542728267015056_);}
	
		.st11{clip-path:url(#SVGID_00000052795720205636712440000002420444047549971901_);fill:url(#SVGID_00000167394147182908421970000009725222477849360815_);}
	
		.st12{clip-path:url(#SVGID_00000062910692076292851670000008513185913978861755_);fill:url(#SVGID_00000016795221747609729790000016645880602180975488_);}
	.st13{fill:#F8DB2C;}
	.st14{fill:#1C75BC;}
</style>
<g>
	<g>
		<g>
			<path class="st6" d="M170.38,177.73c-0.36,0.31-0.72,0.63-1.1,0.92c0.61-0.06,1.17-0.19,1.56-0.87
				C170.69,177.76,170.54,177.74,170.38,177.73"/>
		</g>
		<g>
			<defs>
				<path id="SVGID_00000052803798108259264170000018220200153913850529_" d="M257.21,233.62c-0.9,0.11-1.83,0.09-2.74,0.09
					c-4.01,0.02-8.02-0.02-12.03-0.07c-4.89-0.05-9.78-0.11-14.67-0.05c-5.81,0.07-11.55,0.82-17.31,1.19
					c-2.64,0.18-5.3,1.19-7.72,2.54c-2.29,1.28-4.71,1.94-7.39,1.9c-6.56-0.09-13.13-0.11-19.69,0.03
					c-0.41,0.01-0.83-0.01-1.25-0.03c-1.89-0.09-3.83-0.17-5.11,2.23c-0.42,0.78-2.8,0.52-4.29,0.69c-1.27,0.15-2.52,0.16-3.77,0.07
					c-0.36,1.53-1.25,2.91-2.81,4.11c-1.83,1.4-2.76,3.49-3.44,5.66c-1.49,4.76-1.6,9.71-1.99,14.62c-0.13,1.65,0.31,2.99,1.27,4.36
					c3.28,4.66,6.28,9.52,8.89,14.61c1.71,3.33,2.74,6.72,2.56,10.59c-0.32,6.9,1.33,13.4,5.74,18.84c2.15,2.65,3.75,5.52,5.3,8.5
					c1.43,2.74,2.04,5.9,4.36,8.22c0.88,0.88,0.94,2.27,0.22,3.47c-1.97,3.23-0.06,5.59,1.93,7.73c1.96,2.1,4.29,2.74,7.27,1.55
					c5.28-2.12,10.79-2.8,16.47-1.5c4.1,0.94,7.96,0.17,11.66-1.83c4.83-2.62,8.8-6.22,12.15-10.47c3.19-4.04,6.27-8.03,10.57-11.1
					c2.96-2.12,4.29-5.76,3.93-9.55c-0.47-4.99,0.36-6.36,5.47-7.29c4.02-0.74,6.43-3.2,7.29-6.96c0.86-3.75,0.96-7.92-0.81-11.22
					c-1.98-3.71-0.22-5.29,2.31-6.69c6.22-3.42,10.88-9.38,18.17-11.06c0.61-0.14,1.14-0.69,1.7-1.07c3.9-2.58,6.34-5.89,5.77-10.9
					c-0.22-2,0.38-4.16-0.14-6.04c-1.21-4.35,4.18-10.02-2.62-13.24c-0.2-0.09-0.04-0.86-0.13-1.29c-0.19-0.91-0.34-1.87-0.69-2.72
					C273.45,231.82,265.32,232.59,257.21,233.62"/>
			</defs>
			<clipPath id="SVGID_00000000907461266258883400000016181733140615177627_">
				<use xlink:href="#SVGID_00000052803798108259264170000018220200153913850529_"  style="overflow:visible;"/>
			</clipPath>
			
				<linearGradient id="SVGID_00000119089516519732630670000004290701091885591728_" gradientUnits="userSpaceOnUse" x1="4066.4309" y1="-166.7402" x2="4067.4309" y2="-166.7402" gradientTransform="matrix(-4.623 232.3061 232.3061 4.623 57758.7539 -943788.6875)">
				<stop  offset="0" style="stop-color:#00AEEF"/>
				<stop  offset="1" style="stop-color:#1C75BC"/>
			</linearGradient>
			
				<polygon style="clip-path:url(#SVGID_00000000907461266258883400000016181733140615177627_);fill:url(#SVGID_00000119089516519732630670000004290701091885591728_);" points="
				291.51,231.57 289.19,348.37 150.59,345.61 152.91,228.81 			"/>
		</g>
		<g>
			<path d="M285.06,248.78l0.91-0.26c0.2,0.72,0.26,1.45,0.26,2.15c0,1.11-0.13,2.18-0.13,3.14c0,0.31,0.01,0.62,0.05,0.91l0,0
				c0.06,0.52,0.09,1.03,0.09,1.53c0,2.29-0.64,4.29-1.76,5.98c-1.12,1.69-2.68,3.09-4.52,4.3l-0.01,0l0.01-0.01
				c-0.22,0.14-0.48,0.36-0.8,0.6c-0.32,0.23-0.7,0.48-1.21,0.6c-3.44,0.79-6.31,2.61-9.13,4.71c-2.82,2.1-5.57,4.48-8.8,6.25
				c-0.85,0.47-1.56,0.94-2.01,1.43c-0.45,0.5-0.66,0.95-0.67,1.61c0,0.57,0.19,1.35,0.74,2.37l0,0c1.1,2.06,1.52,4.38,1.52,6.7
				c0,1.75-0.24,3.51-0.62,5.18l0,0c-0.46,2.02-1.36,3.76-2.72,5.08c-1.36,1.32-3.16,2.2-5.32,2.6l0,0
				c-1.05,0.19-1.89,0.4-2.54,0.63c-0.49,0.18-0.86,0.37-1.14,0.57c-0.42,0.31-0.66,0.62-0.85,1.09c-0.18,0.47-0.28,1.12-0.28,1.99
				c0,0.57,0.04,1.22,0.11,1.97c0.04,0.43,0.06,0.86,0.06,1.29c0,3.59-1.45,7.02-4.38,9.12c-4.16,2.97-7.19,6.87-10.38,10.92
				c-3.41,4.33-7.48,8.03-12.44,10.72c-2.75,1.49-5.63,2.35-8.64,2.35c-1.21,0-2.44-0.14-3.68-0.42c-1.88-0.43-3.74-0.64-5.58-0.64
				c-3.51,0-6.95,0.74-10.32,2.09c-1.09,0.44-2.14,0.66-3.15,0.66c-0.99,0-1.94-0.22-2.8-0.65c-0.87-0.42-1.65-1.04-2.36-1.8
				c-0.71-0.76-1.45-1.58-2.02-2.51c-0.57-0.93-1-2-1-3.2c0-1.01,0.31-2.08,0.97-3.16c0.25-0.41,0.36-0.83,0.36-1.2
				c0-0.44-0.15-0.81-0.44-1.1l0,0c-1.29-1.28-2.08-2.78-2.72-4.24c-0.64-1.47-1.14-2.92-1.82-4.21l0,0
				c-1.54-2.97-3.11-5.77-5.19-8.34l0,0c-4.2-5.19-5.99-11.32-5.99-17.78c0-0.56,0.01-1.13,0.04-1.7c0.01-0.28,0.02-0.55,0.02-0.83
				c0-3.32-0.95-6.29-2.48-9.28c-2.59-5.05-5.56-9.86-8.82-14.5c-0.93-1.31-1.47-2.73-1.46-4.33c0-0.21,0.01-0.43,0.03-0.65l0,0
				c0.39-4.87,0.49-9.89,2.03-14.82l0,0c0.35-1.12,0.77-2.24,1.37-3.3c0.59-1.05,1.36-2.04,2.4-2.83l0,0
				c1.42-1.1,2.16-2.26,2.47-3.57l0.18-0.78l0.8,0.05c0.49,0.03,0.99,0.05,1.48,0.05c0.71,0,1.41-0.04,2.12-0.12
				c0.85-0.1,1.82-0.07,2.6-0.13c0.39-0.02,0.72-0.07,0.91-0.13c0.09-0.03,0.15-0.05,0.15-0.06l0.08,0.13l-0.1-0.1l0.03-0.02
				l0.08,0.13l-0.1-0.1l0.26,0.26l-0.33-0.18l0.06-0.09l0.26,0.26l-0.33-0.18l0,0c0.59-1.12,1.4-1.87,2.28-2.28
				c0.88-0.41,1.78-0.48,2.61-0.49c0.76,0,1.47,0.07,2.1,0.06l0.19,0c3.38-0.07,6.77-0.1,10.15-0.1c3.19,0,6.38,0.03,9.57,0.07l0,0
				l0.22,0c2.43,0,4.59-0.61,6.7-1.78c2.5-1.39,5.28-2.47,8.12-2.66l0,0c5.72-0.37,11.48-1.13,17.36-1.19
				c1.54-0.02,3.08-0.03,4.62-0.03c6.73,0,13.44,0.15,20.15,0.15c0.65,0,1.29,0,1.94,0h0c0.3,0,0.59,0,0.87,0
				c0.62,0,1.2-0.01,1.75-0.08c8.13-1.03,16.3-1.81,24.5-2.1l0.66-0.02l0.25,0.61c0.4,1,0.55,2.01,0.74,2.89l0-0.01
				c0.05,0.24,0.05,0.44,0.05,0.62c0,0.17-0.01,0.33-0.01,0.44l0,0.1l0,0.02l0,0l-0.51,0.07l0.46-0.22c0.04,0.1,0.04,0.13,0.05,0.14
				l-0.51,0.07l0.46-0.22l-0.74,0.35l0.34-0.74c0.24,0.11,0.36,0.3,0.4,0.39l-0.74,0.35l0.34-0.74l0,0c1.49,0.7,2.53,1.57,3.18,2.57
				c0.65,1,0.88,2.11,0.87,3.16c0,1.27-0.3,2.49-0.56,3.66c-0.27,1.17-0.52,2.28-0.51,3.24c0,0.43,0.05,0.83,0.15,1.2L285.06,248.78
				l-0.91,0.25c-0.16-0.57-0.22-1.15-0.22-1.71c0-1.27,0.3-2.5,0.56-3.66c0.27-1.17,0.52-2.28,0.51-3.24c0-0.81-0.16-1.49-0.57-2.13
				c-0.42-0.64-1.13-1.29-2.4-1.89l0,0c-0.25-0.12-0.41-0.31-0.49-0.46c-0.12-0.23-0.13-0.38-0.15-0.51
				c-0.01-0.13-0.02-0.24-0.02-0.34c0-0.16,0.01-0.31,0.01-0.44c0-0.12-0.01-0.21-0.01-0.21l0,0l0-0.01
				c-0.19-0.94-0.34-1.84-0.64-2.56l0.88-0.36l0.03,0.95c-8.13,0.29-16.24,1.06-24.33,2.09c-0.69,0.09-1.35,0.1-1.99,0.1
				c-0.3,0-0.59,0-0.87,0h0c-0.65,0-1.3,0-1.95,0c-6.73,0-13.44-0.15-20.15-0.15c-1.53,0-3.06,0.01-4.59,0.03
				c-5.74,0.07-11.46,0.81-17.26,1.19l0,0c-2.43,0.16-4.99,1.12-7.32,2.42c-2.35,1.32-4.87,2.03-7.62,2.02l-0.24,0l0,0
				c-3.18-0.04-6.36-0.07-9.54-0.07c-3.37,0-6.74,0.03-10.11,0.1l-0.23,0c-0.75,0-1.46-0.07-2.1-0.06c-0.71,0-1.31,0.08-1.81,0.31
				c-0.5,0.24-0.96,0.62-1.41,1.45l0,0c-0.15,0.28-0.37,0.47-0.58,0.6c-0.37,0.23-0.74,0.31-1.12,0.38
				c-0.56,0.09-1.17,0.11-1.76,0.13c-0.58,0.02-1.15,0.03-1.57,0.08c-0.79,0.09-1.57,0.13-2.34,0.13c-0.54,0-1.07-0.02-1.6-0.05
				l0.06-0.95l0.92,0.22c-0.4,1.75-1.45,3.34-3.16,4.64l-0.01,0l0,0c-0.79,0.6-1.4,1.37-1.9,2.25c-0.5,0.88-0.88,1.89-1.21,2.94l0,0
				c-1.44,4.59-1.56,9.46-1.95,14.41v0c-0.01,0.17-0.02,0.33-0.02,0.49c0.01,1.19,0.35,2.14,1.12,3.24
				c3.31,4.7,6.32,9.59,8.95,14.72c1.62,3.16,2.69,6.45,2.69,10.15c0,0.3-0.01,0.61-0.02,0.92c-0.03,0.54-0.04,1.08-0.04,1.61
				c0,6.11,1.67,11.76,5.57,16.58l0,0c2.22,2.73,3.85,5.67,5.4,8.66l0,0c0.76,1.46,1.27,2.95,1.87,4.33
				c0.6,1.38,1.28,2.62,2.32,3.66l0,0c0.67,0.66,1,1.56,1,2.44c0,0.75-0.22,1.51-0.64,2.19c-0.51,0.84-0.69,1.54-0.69,2.17
				c0,0.75,0.26,1.46,0.71,2.2c0.45,0.74,1.1,1.48,1.79,2.21c0.59,0.63,1.19,1.09,1.81,1.39c0.62,0.3,1.26,0.45,1.97,0.45
				c0.72,0,1.53-0.16,2.44-0.53c3.56-1.43,7.25-2.23,11.03-2.23c1.98,0,3.98,0.22,6.01,0.68c1.11,0.26,2.19,0.38,3.26,0.38
				c2.65,0,5.21-0.75,7.74-2.12c4.7-2.55,8.57-6.06,11.86-10.22c3.18-4.03,6.32-8.11,10.76-11.29c2.36-1.69,3.59-4.48,3.59-7.58
				c0-0.37-0.02-0.74-0.05-1.11c-0.07-0.79-0.12-1.5-0.12-2.15c0-0.89,0.08-1.68,0.31-2.4c0.17-0.54,0.43-1.03,0.78-1.46
				c0.53-0.65,1.26-1.11,2.12-1.46c0.87-0.35,1.9-0.61,3.15-0.83l0,0c1.86-0.34,3.28-1.06,4.34-2.09c1.06-1.03,1.79-2.41,2.19-4.14
				l0,0c0.36-1.56,0.58-3.18,0.58-4.76c0-2.09-0.38-4.1-1.3-5.8l0,0c-0.64-1.2-0.96-2.27-0.97-3.27c-0.01-1.16,0.48-2.16,1.17-2.89
				c0.69-0.75,1.57-1.29,2.49-1.8c3-1.64,5.69-3.96,8.58-6.11c2.89-2.15,5.99-4.15,9.84-5.04c0.1-0.02,0.29-0.11,0.52-0.29
				c0.24-0.17,0.52-0.41,0.86-0.64l0,0c1.69-1.12,3.05-2.35,3.98-3.76c0.93-1.41,1.45-2.99,1.45-4.93c0-0.42-0.02-0.86-0.08-1.31
				l0,0c-0.04-0.38-0.06-0.75-0.06-1.12c0-1.12,0.13-2.19,0.13-3.14c0-0.6-0.05-1.15-0.19-1.63L285.06,248.78z"/>
		</g>
		<g>
			<defs>
				<path id="SVGID_00000085956031004738099760000010336487043536933046_" d="M167.37,179.14c0.33,0.13,0.66,0.22,0.99,0.26
					c0.31-0.25,0.63-0.49,0.93-0.75C168.64,178.71,167.95,178.68,167.37,179.14"/>
			</defs>
			<clipPath id="SVGID_00000071524153938108747220000015387558627526705570_">
				<use xlink:href="#SVGID_00000085956031004738099760000010336487043536933046_"  style="overflow:visible;"/>
			</clipPath>
			
				<linearGradient id="SVGID_00000090287650754947697070000007947265222051017394_" gradientUnits="userSpaceOnUse" x1="4066.4309" y1="-166.7475" x2="4067.4309" y2="-166.7475" gradientTransform="matrix(-0.0217 1.0881 1.0881 0.0217 437.8089 -4241.9473)">
				<stop  offset="0" style="stop-color:#00AEEF"/>
				<stop  offset="1" style="stop-color:#1C75BC"/>
			</linearGradient>
			
				<polygon style="clip-path:url(#SVGID_00000071524153938108747220000015387558627526705570_);fill:url(#SVGID_00000090287650754947697070000007947265222051017394_);" points="
				169.3,178.65 169.28,179.44 167.35,179.4 167.37,178.61 			"/>
		</g>
		<g>
			<path d="M167.37,179.14l-0.59-0.74c0.44-0.36,0.94-0.52,1.36-0.59c0.42-0.07,0.79-0.08,1.07-0.1l2.99-0.26l-2.3,1.93
				c-0.32,0.27-0.64,0.52-0.95,0.77l-0.31,0.24l-0.39-0.04c-0.42-0.05-0.83-0.16-1.23-0.32l-1.51-0.6l1.27-1.02L167.37,179.14
				l0.35-0.88c0.27,0.11,0.5,0.17,0.74,0.19l-0.11,0.94l-0.59-0.74c0.31-0.25,0.62-0.49,0.91-0.73l0.61,0.73l0.08,0.94
				c-0.37,0.03-0.67,0.04-0.9,0.08c-0.23,0.04-0.37,0.1-0.51,0.21L167.37,179.14l0.35-0.88L167.37,179.14z"/>
		</g>
		<g>
			<defs>
				<path id="SVGID_00000104692096137174840670000002199916196560299186_" d="M169.28,178.65c0.61-0.06,1.17-0.19,1.56-0.87
					c-0.16-0.02-0.3-0.04-0.46-0.05C170.02,178.04,169.66,178.36,169.28,178.65"/>
			</defs>
			<clipPath id="SVGID_00000008865695031210404670000014764491399979375767_">
				<use xlink:href="#SVGID_00000104692096137174840670000002199916196560299186_"  style="overflow:visible;"/>
			</clipPath>
			
				<linearGradient id="SVGID_00000006668889505843279860000000247192998024039099_" gradientUnits="userSpaceOnUse" x1="4066.4309" y1="-166.7503" x2="4067.4309" y2="-166.7503" gradientTransform="matrix(-0.0266 1.3347 1.3347 0.0266 500.6421 -5244.9673)">
				<stop  offset="0" style="stop-color:#00AEEF"/>
				<stop  offset="1" style="stop-color:#1C75BC"/>
			</linearGradient>
			
				<polygon style="clip-path:url(#SVGID_00000008865695031210404670000014764491399979375767_);fill:url(#SVGID_00000006668889505843279860000000247192998024039099_);" points="
				170.86,177.73 170.85,178.68 169.26,178.65 169.28,177.7 			"/>
		</g>
		<g>
			<path d="M169.28,178.65l-0.58-0.75c0.35-0.27,0.7-0.57,1.06-0.89l0.29-0.25l0.38,0.02c0.2,0.01,0.37,0.03,0.52,0.05l1.44,0.17
				l-0.73,1.25c-0.28,0.49-0.69,0.85-1.12,1.05c-0.43,0.2-0.83,0.26-1.18,0.29l-3.24,0.3l2.57-2L169.28,178.65l-0.09-0.94
				c0.26-0.02,0.44-0.06,0.54-0.11c0.1-0.05,0.17-0.1,0.29-0.29l0.82,0.48l-0.11,0.94c-0.17-0.02-0.29-0.04-0.41-0.04l0.06-0.95
				l0.62,0.72c-0.36,0.31-0.73,0.64-1.14,0.95L169.28,178.65l-0.09-0.94L169.28,178.65z"/>
		</g>
		<g>
			<defs>
				<path id="SVGID_00000045621070875090742900000001235992243200341439_" d="M52.29,122.92c-0.03,15.21,4.67,29.31,12.71,40.93
					c0.54-0.17,1.09-0.39,1.66-0.65c1.07-0.5,2.4-0.52,3.62-0.63c5.46-0.51,11-1.55,16.23,0.9c1.65,0.77,2.75,0.56,4.28-0.12
					l0.62-0.28c1.07-0.47,2.14-0.95,3.21-1.4c6.13-2.58,12.43-4.58,19.33-4.04c3.95,0.3,7.53,1.81,8.63,5.77
					c0.98,3.6,3.14,3.9,5.74,3.69c0.3-0.02,0.6-0.05,0.9-0.08c1.67-0.18,3.33-0.42,4.98-0.76c2.15-0.45,3.61-0.49,4.79,0.07
					c1.12,0.53,1.98,1.62,2.94,3.45c1.52,2.89,1.29,5.75-0.06,8.69c-0.54,1.18-0.82,2.44-1,3.72c1.68-0.06,3.02-1.09,4.61-1.38
					c2.7-0.48,5.43-0.85,8.1-1.47c0.1-0.02,0.3,0,0.52,0.01c0.74,0.06,1.79,0.13,0.87-1.43c0.26-0.14,0.49-0.33,0.76-0.4
					c1.85-0.42,3.68-0.98,5.69-0.44c-1.3,0.29-2.6,0.58-3.9,0.86c2.14,0.24,4.26,0.07,6.4-0.1s4.29-0.34,6.48-0.1
					c15.45-13.12,25.24-32.66,25.25-54.52c0.04-39.49-31.96-71.71-71.29-71.77h-0.11C84.47,51.44,52.33,83.34,52.29,122.92"/>
			</defs>
			<clipPath id="SVGID_00000084511318916468257280000003913489354579072419_">
				<use xlink:href="#SVGID_00000045621070875090742900000001235992243200341439_"  style="overflow:visible;"/>
			</clipPath>
			
				<linearGradient id="SVGID_00000170238394771018131820000011867468813565922490_" gradientUnits="userSpaceOnUse" x1="4066.4309" y1="-166.7507" x2="4067.4309" y2="-166.7507" gradientTransform="matrix(-3.6798 184.9103 184.9103 3.6798 45921.6289 -751198.4375)">
				<stop  offset="0" style="stop-color:#00AEEF"/>
				<stop  offset="1" style="stop-color:#1C75BC"/>
			</linearGradient>
			
				<polygon style="clip-path:url(#SVGID_00000084511318916468257280000003913489354579072419_);fill:url(#SVGID_00000170238394771018131820000011867468813565922490_);" points="
				198.27,51.49 195.62,185.03 49.66,182.12 52.31,48.59 			"/>
		</g>
		<g>
			<path d="M170.38,177.73l-0.1,0.94c-0.73-0.08-1.47-0.11-2.21-0.11c-2.71,0-5.45,0.44-8.31,0.44c-0.78,0-1.57-0.03-2.36-0.12
				l-5.73-0.64l5.63-1.23c1.3-0.28,2.6-0.57,3.89-0.86l0.21,0.92l-0.25,0.92c-0.5-0.14-0.99-0.19-1.49-0.19
				c-1.18,0-2.41,0.33-3.74,0.64l-0.21-0.92l0.23,0.92l-0.03,0.01c-0.07,0.03-0.24,0.15-0.5,0.3l-0.46-0.83l0.82-0.48
				c0.29,0.51,0.48,0.92,0.49,1.44c0,0.24-0.06,0.52-0.21,0.75c-0.22,0.36-0.56,0.53-0.82,0.61c-0.27,0.08-0.49,0.09-0.69,0.09
				c-0.21,0-0.39-0.02-0.54-0.03c-0.15-0.01-0.27-0.02-0.3-0.02l0,0l-0.02-0.45l0.1,0.43l-0.08,0.01l-0.02-0.45l0.1,0.43l0,0
				c-2.72,0.63-5.47,1-8.14,1.48l0.01,0c-0.64,0.12-1.32,0.41-2.08,0.73c-0.76,0.31-1.63,0.64-2.66,0.67l-1.13,0.04l0.16-1.12
				c0.19-1.33,0.49-2.68,1.08-3.98l0,0c0.66-1.45,1.02-2.84,1.02-4.18c0-1.22-0.29-2.42-0.94-3.67c-0.46-0.88-0.89-1.56-1.3-2.04
				c-0.41-0.49-0.79-0.79-1.21-0.99c-0.44-0.21-0.95-0.32-1.64-0.32c-0.68,0-1.51,0.11-2.55,0.32c-1.69,0.35-3.38,0.59-5.07,0.77
				l-0.01,0l0,0c-0.3,0.03-0.61,0.06-0.93,0.08l-0.06-0.95l0.08,0.94c-0.4,0.03-0.8,0.05-1.19,0.05c-1.14,0-2.31-0.18-3.32-0.89
				c-1.02-0.71-1.76-1.88-2.21-3.55l0,0.01c-0.49-1.75-1.47-2.89-2.82-3.7c-1.35-0.81-3.09-1.24-4.97-1.38l0,0
				c-0.74-0.06-1.48-0.09-2.2-0.09c-5.82,0-11.28,1.78-16.68,4.05l0,0c-1.06,0.45-2.13,0.92-3.2,1.4l0.01,0l-0.63,0.28l0,0l0,0
				c-0.89,0.4-1.75,0.69-2.7,0.7c-0.76,0-1.54-0.19-2.36-0.58l0,0c-2.4-1.12-4.87-1.47-7.45-1.47c-2.69,0-5.47,0.39-8.29,0.66l0,0
				l0,0c-1.27,0.1-2.5,0.15-3.3,0.54l0,0c-0.6,0.28-1.19,0.51-1.77,0.7l-0.67,0.21l-0.4-0.58c-8.12-11.74-12.88-25.99-12.88-41.34
				l0-0.14v0c0.05-40.11,32.61-72.42,72.91-72.42l0.11,0h0c39.84,0.06,72.23,32.67,72.23,72.65v0.07v0
				c-0.01,22.15-9.93,41.95-25.59,55.24l-0.31,0.26l-0.4-0.04L170.38,177.73l-0.61-0.72c15.25-12.95,24.91-32.22,24.92-53.8v0v-0.07
				c0-38.94-31.56-70.7-70.34-70.75h0l-0.11,0c-39.26,0-70.96,31.48-71.01,70.53v0l0,0.13c0,14.96,4.64,28.82,12.54,40.26L65,163.85
				l-0.29-0.9c0.5-0.16,1.01-0.36,1.54-0.61l0,0c1.34-0.62,2.77-0.6,3.94-0.71l-0.01,0c2.76-0.26,5.6-0.66,8.47-0.66
				c2.74,0,5.53,0.38,8.25,1.65l0,0c0.64,0.3,1.12,0.4,1.56,0.4c0.55,0,1.13-0.17,1.93-0.53l-0.01,0l0.63-0.28l0.01,0l0,0
				c1.07-0.47,2.15-0.95,3.23-1.41l0.01,0l0,0c5.5-2.31,11.2-4.2,17.42-4.2c0.78,0,1.56,0.03,2.35,0.09l0,0
				c2.07,0.16,4.09,0.63,5.8,1.65c1.7,1.01,3.06,2.61,3.67,4.82l0,0.01c0.39,1.4,0.91,2.1,1.47,2.49c0.56,0.39,1.28,0.55,2.24,0.55
				c0.33,0,0.67-0.02,1.04-0.05l0.01,0l0.01,0c0.28-0.02,0.57-0.04,0.87-0.07l0.09,0.94l-0.1-0.94c1.65-0.18,3.28-0.41,4.89-0.74
				c1.1-0.23,2.05-0.36,2.93-0.36c0.89,0,1.71,0.15,2.46,0.5c0.7,0.33,1.31,0.84,1.85,1.49c0.54,0.65,1.02,1.43,1.52,2.38
				c0.79,1.5,1.16,3.03,1.16,4.55c0,1.68-0.44,3.34-1.19,4.97l0,0c-0.49,1.07-0.76,2.23-0.93,3.45l-0.94-0.13l-0.03-0.95
				c0.65-0.02,1.29-0.24,2.01-0.53c0.72-0.29,1.51-0.66,2.45-0.83l0.01,0c2.73-0.49,5.44-0.86,8.05-1.46l0,0
				c0.15-0.03,0.25-0.03,0.34-0.03c0.18,0,0.32,0.02,0.47,0.03c0.14,0.01,0.28,0.02,0.38,0.02l0.14-0.01l0.01,0l0.1,0.39l-0.29-0.26
				c0.1-0.11,0.19-0.13,0.19-0.13l0.1,0.39l-0.29-0.26l0.36,0.33l-0.51,0c-0.01-0.05,0.04-0.23,0.14-0.33l0.36,0.33l-0.51,0h0.17
				l-0.17,0.02l0-0.02h0.17l-0.17,0.02l-0.01-0.03c-0.02-0.06-0.08-0.23-0.22-0.46l-0.5-0.84l0.85-0.47
				c0.08-0.04,0.2-0.12,0.35-0.22c0.16-0.09,0.36-0.2,0.64-0.27l0.01,0l0.01,0c1.27-0.28,2.63-0.68,4.16-0.68
				c0.64,0,1.3,0.07,1.98,0.26l3.7,0.99l-3.74,0.85c-1.3,0.29-2.6,0.58-3.9,0.86l-0.2-0.93l0.1-0.94c0.71,0.08,1.43,0.11,2.16,0.11
				c2.66,0,5.41-0.44,8.31-0.44c0.79,0,1.6,0.03,2.41,0.12L170.38,177.73l-0.61-0.72L170.38,177.73z"/>
		</g>
		<g>
			<defs>
				<path id="SVGID_00000142854440787531231310000011405580953653518242_" d="M154.98,18.71c-4.91,0.99-9.86,1.24-14.85,0.98
					c-0.84-0.05-1.76,0.32-2.59,0.66c-0.86,0.36-1.74,0.64-2.6,0.29c-9.86-3.91-18.82,1.07-27.96,3.14
					c-4.8,1.08-9.31,1.73-12.95-1.61c-3.24-2.97-5.17-1.29-6.55,1.16c-2.56,4.6-6.81,6.75-11.28,8.33
					c-4.75,1.69-7.05,4.99-7.63,9.56c-0.37,2.88-1.8,4.65-3.96,6.22c-2,1.45-4.1,2.73-6.4,3.64c-1.65,0.66-3.96,0.71-4.92,1.9
					c-3.19,3.95-7.83,6.59-10.56,10.65c-2.35,3.51-5.11,6.44-7.91,9.44c-3.82,4.1-6.85,7.97-5.4,14.62
					c1.89,8.64-2.12,16.39-6.74,23.58c-0.8,1.25-1.83,2.32-0.47,3.83c2.41,2.68,2.24,5.56,0.67,8.6c-0.44,0.83-1.28,1.78,0.4,2.71
					c5.66,3.16,9.74,8.14,11.08,14.21c1.76,7.98,6.62,12.69,13.17,16.46c1.46,0.83,2.9,1.77,4.11,2.9c2.08,1.95,4.25,3.4,6.57,4.08
					c-7.42-11.88-11.69-25.92-11.67-40.96c0.07-42.84,34.87-77.49,77.48-77.4c42.81,0.09,77.49,34.91,77.33,77.53
					c-0.08,21.64-8.92,41.16-23.16,55.16c2.41-0.44,4.79-1.05,7.15-1.81c2.43-0.79,5.08-1.06,7.65-1.18
					c6.85-0.34,13.71-0.66,20.58-0.57c2.56,0.04,5.2,0.06,7.36-1.84c0.53-0.46,1.23-0.43,1.91-0.41c0.18,0.01,0.35,0.01,0.52,0.01
					c14.73-0.06,29.43,0.64,44.12,1.71c3.34,0.25,6.67,0.36,10.01,0.88c2.09,0.33,3.92,1.18,5.87,1.84
					c0.67,0.21,1.25,0.61,1.51,1.31c1.06,2.9,3.41,3.88,6.2,3.79c5.67-0.17,11.29,0.39,16.94,0.55c0.75-0.37,1.53-0.69,2.33-0.97
					c3.63-1.25,6.11-3.51,8.41-6.26c1.57-1.9,3.17-3.78,4.62-5.78c6.8-9.49,12.27-19.52,12.49-31.61c0.08-4.28-0.55-4.82-4.2-2.67
					c-4.85,2.84-10.55,2.18-15.66,4.24c-1.95,0.8-5.06,0.02-7.37,1.58c-0.83,0.56-1.2-0.11-1.59-0.63
					c-1.93-2.48-4.24-4.35-8.48-4.18c4.05-2.54,2.8-4.55,0.84-6.69c-2.76-3.01-5.79-5.85-9.47-7.41c-5.7-2.42-8.57-7-10.73-12.23
					c-1.2-2.93-2.82-5.18-5.72-6.57c-1.1-0.53-2.43-1.11-2.48-2.86c-0.07-1.89-0.58-3.76-0.66-5.65c-0.18-4.34-1.93-7.53-6.19-8.99
					c-1.27-0.44-1.85-1.31-1.78-2.53c0.18-3.3-0.6-6.05-3.48-8.11c-1.02-0.73-1.63-2.12-2.26-3.3c-2.66-5.04-5.45-9.99-8.92-14.55
					c-0.89-1.17-2.65-2.67-0.89-5.08c2.03,2.89,3.86,5.56,6.14,7.9c2.01,2.06,3,1.29,3.76-1.05c1.21-3.73,0.55-7.31-0.66-10.85
					c-0.47-1.32-0.85-2.22-2.82-1.61c-2.57,0.79-5.45,0.57-7.92-0.57c-2.35-1.09-4.41-0.77-6.68,0.01
					c-3.14,1.07-6.09,1.98-9.79,1.49c-2.78-0.38-4.65-2.23-7.14-2.45c-3.74-0.32-7.45-0.47-10.84-2.32
					c-1.36-0.74-3.93,0.14-3.52-2.88c0.07-0.48-0.75-0.94-1.47-1.18c-3.85-1.31-9.97,0.73-12.31,4.21c-0.5,0.73-1.04,1.31-0.29,2.35
					c1.07,1.48,0.67,2.92-0.72,4.13c-1.35,1.16-2.57,0.88-3.97,0.08c-2.92-1.69-6.01-3.24-9.4-3.21c-2.83,0.02-4.32-1.51-4.93-3.64
					c-0.67-2.3-2.08-2.92-4.05-3.26c-3.52-0.62-7.51,0.31-10.21-3.14c-0.29-0.37-1.31-0.37-1.94-0.26c-2.02,0.39-3.27-0.51-3.9-2.28
					c-0.62-1.73,0.61-2.82,1.82-3.58c2.8-1.75,2.31-3.82,0.57-5.78c-0.92-1.04-1.12-1.49,0.04-2.45c0.67-0.56,1.43-1.57,0.86-2.62
					c-0.35-0.64-1.01-0.82-1.65-0.82C155.5,18.63,155.22,18.66,154.98,18.71"/>
			</defs>
			<clipPath id="SVGID_00000013880964307525005410000017018758565944808623_">
				<use xlink:href="#SVGID_00000142854440787531231310000011405580953653518242_"  style="overflow:visible;"/>
			</clipPath>
			
				<linearGradient id="SVGID_00000172399748656253064800000015269552761776163263_" gradientUnits="userSpaceOnUse" x1="4066.4309" y1="-166.7536" x2="4067.4309" y2="-166.7536" gradientTransform="matrix(-4.5426 228.2642 228.2642 4.5426 56714.4453 -927368.4375)">
				<stop  offset="0" style="stop-color:#00AEEF"/>
				<stop  offset="1" style="stop-color:#1C75BC"/>
			</linearGradient>
			
				<polygon style="clip-path:url(#SVGID_00000013880964307525005410000017018758565944808623_);fill:url(#SVGID_00000172399748656253064800000015269552761776163263_);" points="
				339.24,16.8 335.82,188.92 17.56,182.58 20.98,10.47 			"/>
		</g>
		<g>
			<path d="M335.87,138.04l0.95,0.02c-0.23,12.38-5.84,22.6-12.67,32.14l0,0c-1.47,2.04-3.09,3.94-4.66,5.83l0,0l0,0
				c-2.35,2.81-4.98,5.22-8.83,6.54l0,0c-0.77,0.26-1.51,0.57-2.22,0.92l-0.21,0.1l-0.24-0.01c-4.96-0.14-9.84-0.58-14.71-0.58
				c-0.73,0-1.45,0.01-2.18,0.03c-0.12,0-0.24,0.01-0.36,0.01c-1.44,0-2.83-0.27-4.03-0.99c-1.2-0.71-2.17-1.87-2.73-3.43l0,0
				c-0.07-0.19-0.16-0.31-0.31-0.43c-0.14-0.12-0.34-0.22-0.59-0.3l-0.01,0l-0.01,0c-2.01-0.68-3.8-1.5-5.71-1.8l0,0
				c-3.26-0.51-6.57-0.63-9.94-0.87l0,0c-14.11-1.02-28.24-1.71-42.38-1.71c-0.56,0-1.11,0-1.67,0l0.01,0l-0.07,0
				c-0.35,0-0.66-0.02-0.93-0.02c-0.22,0-0.41,0.02-0.54,0.05c-0.13,0.03-0.21,0.07-0.28,0.14l0,0c-1.06,0.94-2.25,1.47-3.44,1.75
				c-1.19,0.28-2.38,0.33-3.53,0.33c-0.35,0-0.69,0-1.03-0.01c-0.82-0.01-1.65-0.02-2.47-0.02c-6.01,0-12.02,0.28-18.05,0.58l0,0
				c-2.53,0.12-5.11,0.39-7.4,1.14l-0.01,0l0,0c-2.4,0.77-4.81,1.4-7.27,1.84l-3.03,0.55l2.19-2.16
				c14.06-13.83,22.8-33.11,22.87-54.49c0-0.09,0-0.18,0-0.28c0-41.97-34.2-76.21-76.39-76.31l-0.15,0
				c-42.01,0-76.31,34.19-76.37,76.45v0.1c0,14.83,4.21,28.65,11.53,40.36l1.31,2.1l-2.38-0.69c-2.52-0.73-4.81-2.28-6.95-4.3l0,0
				c-1.13-1.05-2.51-1.96-3.94-2.77l-0.01-0.01l0.01,0c-3.33-1.92-6.28-4.1-8.63-6.85c-2.35-2.76-4.08-6.09-4.99-10.22
				c-1.28-5.77-5.16-10.54-10.62-13.59l0,0c-0.46-0.25-0.82-0.54-1.09-0.89c-0.27-0.35-0.41-0.8-0.4-1.19
				c0-0.48,0.16-0.86,0.31-1.17c0.15-0.3,0.31-0.55,0.4-0.73l0,0.01c0.69-1.34,1.06-2.58,1.05-3.73c-0.01-1.3-0.44-2.51-1.59-3.81
				l0,0c-0.58-0.64-0.91-1.37-0.9-2.09c0-0.66,0.24-1.2,0.49-1.66c0.26-0.46,0.55-0.85,0.79-1.23l0,0l0,0
				c1.89-2.95,3.67-5.97,4.96-9.07c1.29-3.11,2.1-6.28,2.1-9.57c0-1.38-0.14-2.78-0.45-4.21c-0.27-1.22-0.39-2.36-0.39-3.44
				c0-2.56,0.71-4.75,1.83-6.68c1.11-1.94,2.61-3.64,4.2-5.35l0.01-0.01l-0.01,0.01c2.8-3.01,5.52-5.9,7.81-9.32
				c1.45-2.16,3.36-3.89,5.27-5.56c1.91-1.67,3.82-3.28,5.34-5.17l0-0.01l0,0c0.36-0.44,0.81-0.74,1.27-0.96
				c0.69-0.33,1.43-0.51,2.14-0.68c0.71-0.17,1.38-0.33,1.9-0.54l0,0l0,0c2.2-0.87,4.23-2.1,6.19-3.53l0,0
				c1.02-0.74,1.83-1.5,2.42-2.38c0.59-0.88,0.98-1.88,1.16-3.19l0,0c0.3-2.41,1.08-4.55,2.44-6.32c1.36-1.77,3.3-3.12,5.81-4.01
				l0.02-0.01l-0.02,0.01c2.2-0.78,4.3-1.68,6.14-2.93c1.84-1.25,3.42-2.82,4.62-4.97l0,0v0c0.46-0.81,0.98-1.58,1.66-2.18
				c0.67-0.6,1.55-1.04,2.55-1.04c0.61,0,1.24,0.16,1.87,0.46c0.63,0.31,1.27,0.76,1.94,1.37l0,0c0.92,0.85,1.88,1.39,2.9,1.74
				c1.02,0.35,2.1,0.49,3.25,0.49c1.84,0,3.85-0.38,5.95-0.85c3.28-0.74,6.59-1.88,9.97-2.85c3.39-0.97,6.85-1.76,10.46-1.76
				c2.63,0,5.33,0.43,8.08,1.52c0.16,0.06,0.31,0.09,0.49,0.09c0.36,0,0.85-0.14,1.4-0.38l0,0c0.79-0.32,1.73-0.73,2.8-0.74
				l0.2,0.01l0,0c1.19,0.06,2.39,0.1,3.57,0.1c3.71,0,7.38-0.32,11.03-1.06l0,0c0.29-0.06,0.62-0.1,0.98-0.1
				c0.41,0,0.86,0.06,1.31,0.25c0.45,0.19,0.89,0.55,1.17,1.06l0,0.01c0.21,0.39,0.32,0.81,0.32,1.21c0,0.61-0.22,1.14-0.49,1.56
				c-0.27,0.42-0.6,0.76-0.91,1.02l0,0l0,0c-0.24,0.2-0.38,0.35-0.44,0.43l-0.03,0.04l0,0l0,0l0,0l0,0l0,0l-0.19-0.05h0.19
				l-0.01,0.05l-0.19-0.05h0.19h-0.17l0.16-0.03l0,0.03h-0.17l0.16-0.03l-0.01,0l0.01,0v0l-0.01,0l0.01,0c0,0.03,0.17,0.31,0.53,0.7
				l0,0c0.47,0.53,0.88,1.09,1.17,1.68c0.3,0.59,0.49,1.23,0.49,1.9c0,0.68-0.21,1.38-0.63,1.99c-0.42,0.62-1.02,1.16-1.81,1.65
				c-0.45,0.28-0.87,0.6-1.14,0.92c-0.27,0.33-0.4,0.61-0.4,0.96c0,0.16,0.03,0.35,0.11,0.57l0,0c0.22,0.63,0.52,1.06,0.84,1.33
				c0.33,0.26,0.7,0.41,1.28,0.41c0.21,0,0.44-0.02,0.7-0.07l0.01,0l0.01,0c0.29-0.05,0.61-0.08,0.94-0.08c0.3,0,0.61,0.02,0.93,0.1
				c0.31,0.08,0.66,0.2,0.99,0.58l0,0.01c0.59,0.76,1.23,1.25,1.92,1.6c1.04,0.52,2.24,0.72,3.55,0.83
				c1.31,0.11,2.73,0.12,4.15,0.36l0,0c1.04,0.18,2.03,0.44,2.9,1.06c0.87,0.61,1.53,1.58,1.9,2.87l0,0.01l0,0
				c0.26,0.92,0.69,1.64,1.3,2.14c0.61,0.49,1.43,0.81,2.66,0.81l0.04,0l0.13,0c3.65,0.01,6.84,1.65,9.76,3.33l0,0
				c0.67,0.39,1.22,0.58,1.63,0.57c0.38-0.01,0.73-0.11,1.25-0.55l0,0c0.36-0.31,0.62-0.63,0.78-0.92c0.16-0.29,0.23-0.55,0.23-0.81
				c0-0.33-0.11-0.69-0.43-1.14l0,0c-0.34-0.47-0.55-0.99-0.55-1.52c0-0.47,0.16-0.87,0.33-1.17c0.17-0.3,0.35-0.54,0.5-0.75
				l0.78,0.54l-0.79-0.53c1.06-1.57,2.72-2.8,4.57-3.67c1.86-0.86,3.93-1.36,5.89-1.36c1.03,0,2.02,0.14,2.94,0.45l-0.01,0
				c0.41,0.14,0.85,0.32,1.24,0.59c0.2,0.14,0.39,0.29,0.56,0.51c0.17,0.22,0.33,0.53,0.33,0.92l-0.01,0.18l0,0l0,0
				c-0.03,0.19-0.04,0.34-0.04,0.48c0.01,0.43,0.09,0.54,0.14,0.6c0.04,0.05,0.12,0.11,0.28,0.17c0.24,0.09,0.64,0.15,1.1,0.22
				c0.46,0.08,1,0.16,1.54,0.45l0,0c3.14,1.72,6.7,1.89,10.47,2.21l0,0c1.46,0.13,2.66,0.72,3.78,1.25c1.13,0.54,2.19,1.04,3.4,1.2
				l0,0c0.67,0.09,1.31,0.13,1.93,0.13c2.61,0,4.9-0.71,7.43-1.58c1.28-0.44,2.56-0.76,3.9-0.76c1.13,0,2.29,0.24,3.48,0.79
				l0.03,0.01l-0.03-0.02c1.35,0.63,2.86,0.95,4.35,0.95c0.99,0,1.97-0.14,2.89-0.43c0.49-0.15,0.93-0.23,1.36-0.23
				c0.38,0,0.75,0.07,1.08,0.23c0.5,0.24,0.84,0.64,1.05,1.03c0.22,0.39,0.36,0.79,0.5,1.18l0,0l0,0.01
				c0.78,2.28,1.36,4.62,1.36,7.05c0,1.44-0.21,2.91-0.69,4.4c-0.25,0.75-0.52,1.4-0.91,1.93c-0.2,0.26-0.44,0.51-0.74,0.69
				c-0.3,0.18-0.67,0.29-1.03,0.29c-0.49,0-0.95-0.17-1.37-0.42c-0.43-0.26-0.84-0.61-1.28-1.06c-2.36-2.42-4.22-5.13-6.24-8.01
				l0.78-0.54l0.76,0.56c-0.46,0.63-0.57,1.07-0.57,1.44c0,0.4,0.15,0.79,0.44,1.21c0.28,0.42,0.66,0.84,1.02,1.3l0,0
				c3.52,4.63,6.33,9.62,9,14.68l0,0c0.33,0.61,0.63,1.24,0.95,1.77c0.32,0.53,0.67,0.96,1.02,1.2c1.43,1.02,2.43,2.24,3.05,3.61
				c0.62,1.37,0.85,2.85,0.85,4.4c0,0.3-0.01,0.61-0.03,0.92l0,0.13c0,0.4,0.09,0.66,0.25,0.87c0.16,0.21,0.42,0.42,0.9,0.58
				c2.29,0.78,4,2.08,5.11,3.79c1.11,1.71,1.62,3.77,1.72,6.05v0c0.07,1.75,0.59,3.63,0.66,5.66v0c0.01,0.32,0.07,0.55,0.16,0.73
				c0.13,0.27,0.34,0.49,0.65,0.7c0.31,0.21,0.71,0.4,1.13,0.61l0.01,0l-0.01-0.01c1.57,0.75,2.82,1.76,3.82,2.96
				c1,1.2,1.75,2.58,2.37,4.11l0,0c1.06,2.57,2.28,4.94,3.9,6.94c1.62,2,3.62,3.63,6.32,4.78c3.89,1.66,7.01,4.61,9.8,7.64l0,0
				c0.52,0.57,1.02,1.15,1.4,1.79c0.38,0.64,0.67,1.35,0.67,2.15c0,0.75-0.27,1.51-0.8,2.2c-0.52,0.69-1.28,1.33-2.32,1.99l-0.5-0.8
				l-0.04-0.95c0.19-0.01,0.38-0.01,0.57-0.01c2.1,0,3.82,0.5,5.23,1.34c1.41,0.84,2.51,1.98,3.47,3.22l0.01,0.01
				c0.17,0.22,0.29,0.4,0.37,0.47l0.03,0.03l-0.01,0.01l0-0.01l0,0l-0.01,0.01l0-0.01l-0.14,0.23v-0.27l0.14,0.03l-0.14,0.23v-0.27
				v0.23l-0.04-0.23l0.04,0v0.23l-0.04-0.23l0,0l0.09-0.05c1.39-0.94,2.93-1.13,4.28-1.24c1.35-0.09,2.56-0.13,3.27-0.44l0,0
				c2.7-1.09,5.48-1.43,8.12-1.88c2.65-0.44,5.16-0.97,7.41-2.3c0.7-0.41,1.3-0.73,1.85-0.96c0.55-0.23,1.04-0.38,1.57-0.39
				c0.41-0.01,0.86,0.12,1.21,0.4c0.26,0.21,0.45,0.47,0.58,0.74c0.19,0.41,0.29,0.85,0.35,1.36c0.06,0.5,0.08,1.07,0.08,1.73
				c0,0.2,0,0.41-0.01,0.63v0L335.87,138.04l-0.95-0.02c0-0.21,0.01-0.41,0.01-0.6c0.01-1.09-0.08-1.85-0.21-2.17l-0.07-0.16
				l-0.02-0.02l0.06-0.06l-0.03,0.07l-0.03-0.02l0.06-0.06l-0.03,0.07l0.01-0.02l0,0.02l0,0l0.01-0.02l0,0.02l-0.05,0
				c-0.11,0-0.41,0.05-0.83,0.24c-0.42,0.18-0.97,0.47-1.63,0.86c-2.6,1.52-5.37,2.08-8.06,2.53c-2.69,0.45-5.32,0.8-7.73,1.77l0,0
				c-1.24,0.49-2.57,0.46-3.84,0.57c-1.27,0.09-2.44,0.29-3.36,0.92c-0.32,0.22-0.7,0.38-1.11,0.38c-0.27,0-0.54-0.08-0.75-0.18
				c-0.31-0.17-0.51-0.38-0.66-0.56c-0.15-0.18-0.27-0.35-0.36-0.47l0.01,0.01c-0.89-1.14-1.82-2.09-2.94-2.75
				c-1.13-0.66-2.46-1.07-4.27-1.07c-0.16,0-0.32,0-0.49,0.01l-3.56,0.14l3.02-1.89c0.92-0.57,1.49-1.1,1.82-1.53
				c0.32-0.44,0.41-0.75,0.41-1.06c0-0.33-0.12-0.71-0.4-1.17c-0.27-0.46-0.7-0.96-1.18-1.5l0,0c-2.73-2.97-5.68-5.71-9.14-7.18
				c-3-1.27-5.28-3.13-7.06-5.33c-1.78-2.2-3.08-4.74-4.18-7.4l0,0c-0.58-1.41-1.24-2.61-2.07-3.61c-0.84-1-1.85-1.82-3.18-2.46l0,0
				c-0.54-0.26-1.23-0.56-1.86-1.12c-0.31-0.28-0.6-0.63-0.81-1.07c-0.21-0.43-0.33-0.94-0.35-1.49v0
				c-0.05-1.74-0.56-3.61-0.66-5.64v0c-0.09-2.06-0.54-3.76-1.41-5.1c-0.88-1.33-2.17-2.35-4.14-3.03c-0.73-0.25-1.36-0.66-1.8-1.23
				c-0.44-0.57-0.64-1.29-0.63-2.01l0.01-0.24c0.02-0.28,0.02-0.55,0.02-0.82c0-1.36-0.21-2.56-0.68-3.62
				c-0.48-1.06-1.23-1.99-2.42-2.85c-0.67-0.48-1.14-1.12-1.54-1.76c-0.39-0.64-0.71-1.3-1.01-1.86l0,0
				c-2.65-5.03-5.42-9.93-8.84-14.42l0,0c-0.26-0.35-0.7-0.82-1.09-1.41c-0.39-0.59-0.75-1.34-0.75-2.26c0-0.82,0.3-1.69,0.94-2.56
				l0.78-1.07l0.76,1.08c2.03,2.9,3.84,5.52,6.05,7.78c0.36,0.37,0.67,0.62,0.9,0.75c0.23,0.14,0.36,0.15,0.4,0.15l0.07-0.02
				c0.05-0.03,0.19-0.15,0.35-0.42c0.15-0.27,0.32-0.66,0.48-1.15c0.42-1.29,0.6-2.56,0.6-3.82c0-2.13-0.51-4.26-1.26-6.44l0,0.01
				c-0.17-0.51-0.34-0.87-0.46-1.01l-0.13-0.12c-0.04-0.02-0.11-0.04-0.26-0.04c-0.17,0-0.44,0.04-0.8,0.15
				c-1.12,0.34-2.28,0.51-3.45,0.51c-1.76,0-3.53-0.38-5.14-1.12l0,0c-0.96-0.44-1.82-0.61-2.69-0.61c-1.03,0-2.1,0.25-3.29,0.66
				c-2.54,0.87-5.08,1.68-8.04,1.68c-0.7,0-1.43-0.05-2.18-0.15l0,0c-1.57-0.22-2.83-0.83-3.96-1.37c-1.13-0.54-2.11-0.99-3.13-1.07
				l0,0c-3.7-0.33-7.57-0.46-11.22-2.43l0,0c-0.15-0.08-0.43-0.16-0.79-0.22c-0.54-0.1-1.24-0.13-1.96-0.5
				c-0.36-0.19-0.72-0.49-0.96-0.92c-0.24-0.42-0.34-0.92-0.34-1.47c0-0.23,0.02-0.48,0.05-0.74l0,0l0.53,0.07l-0.53,0l0-0.07
				l0.53,0.07l-0.53,0h0.38l-0.31,0.24c0,0-0.06-0.08-0.06-0.24h0.38l-0.31,0.24l-0.07-0.07c-0.15-0.12-0.5-0.29-0.81-0.39l-0.01,0
				c-0.68-0.23-1.48-0.35-2.33-0.35c-1.63,0-3.47,0.43-5.09,1.18c-1.62,0.75-3.01,1.82-3.8,3.01l0,0l0,0
				c-0.18,0.26-0.33,0.46-0.41,0.6c-0.08,0.15-0.09,0.21-0.09,0.25c0,0.04,0,0.14,0.19,0.41l0,0c0.51,0.7,0.79,1.47,0.79,2.25
				c0,0.61-0.17,1.2-0.47,1.73c-0.29,0.53-0.7,1-1.19,1.43l-0.01,0l0,0c-0.76,0.66-1.63,1.01-2.48,1c-0.95,0-1.78-0.37-2.58-0.83
				l0,0c-2.86-1.66-5.76-3.08-8.81-3.08l-0.11,0l-0.06,0c-1.56,0-2.88-0.44-3.86-1.24c-0.98-0.8-1.59-1.9-1.93-3.09l0,0.01
				c-0.3-1.01-0.69-1.5-1.18-1.86c-0.49-0.35-1.19-0.57-2.12-0.73l-0.01,0l0.01,0c-1.62-0.29-3.49-0.21-5.39-0.5
				c-0.95-0.15-1.91-0.4-2.84-0.86c-0.93-0.46-1.8-1.15-2.56-2.12l0,0.01l0.28-0.22l-0.17,0.32l-0.11-0.1l0.28-0.22l-0.17,0.32
				l-0.01,0c-0.05-0.02-0.29-0.07-0.53-0.06c-0.21,0-0.44,0.02-0.61,0.05l-0.17-0.93l0.18,0.93c-0.36,0.07-0.72,0.11-1.06,0.11
				c-0.94,0.01-1.8-0.29-2.47-0.84c-0.67-0.55-1.13-1.3-1.44-2.17l0,0c-0.15-0.41-0.22-0.82-0.22-1.21c0-0.88,0.37-1.63,0.84-2.18
				c0.48-0.56,1.05-0.97,1.58-1.31c0.63-0.39,1.02-0.77,1.24-1.11c0.22-0.34,0.3-0.62,0.3-0.93c0-0.3-0.09-0.65-0.29-1.05
				c-0.2-0.39-0.5-0.83-0.9-1.27l0,0c-0.25-0.28-0.47-0.54-0.65-0.84c-0.18-0.29-0.34-0.65-0.34-1.09c0-0.4,0.15-0.78,0.36-1.08
				c0.21-0.3,0.47-0.54,0.78-0.8l0,0c0.19-0.16,0.4-0.37,0.53-0.58c0.14-0.21,0.19-0.4,0.19-0.54c0-0.1-0.02-0.18-0.08-0.31l0,0.01
				c-0.08-0.13-0.14-0.18-0.27-0.24c-0.13-0.06-0.32-0.09-0.55-0.09c-0.2,0-0.41,0.03-0.61,0.07l0,0
				c-3.79,0.76-7.59,1.09-11.41,1.09c-1.22,0-2.45-0.03-3.68-0.1l-0.03,0l0.02,0l-0.1,0c-0.53-0.01-1.31,0.27-2.08,0.6l0,0
				c-0.62,0.26-1.32,0.52-2.13,0.52c-0.38,0-0.79-0.07-1.18-0.22c-2.52-1-4.96-1.39-7.38-1.39c-3.32,0-6.62,0.74-9.94,1.69
				c-3.32,0.95-6.66,2.1-10.08,2.88c-2.15,0.48-4.28,0.9-6.37,0.9c-1.31,0-2.61-0.17-3.87-0.6c-1.25-0.43-2.46-1.12-3.56-2.14l0,0
				c-0.56-0.52-1.06-0.86-1.48-1.06c-0.42-0.2-0.76-0.27-1.04-0.27c-0.46,0-0.85,0.17-1.29,0.56c-0.44,0.39-0.87,0.99-1.27,1.7l0,0
				c-1.36,2.44-3.18,4.25-5.22,5.62c-2.04,1.38-4.3,2.34-6.57,3.14l0,0c-2.24,0.8-3.83,1.94-4.95,3.38
				c-1.12,1.45-1.79,3.24-2.06,5.4l0,0c-0.2,1.57-0.71,2.89-1.46,4.01c-0.76,1.12-1.75,2.03-2.88,2.85l0,0
				c-2.04,1.48-4.2,2.8-6.61,3.75l0.01,0c-0.96,0.38-1.98,0.56-2.83,0.79c-0.42,0.11-0.8,0.24-1.09,0.38
				c-0.29,0.14-0.49,0.29-0.61,0.44l0,0c-1.67,2.07-3.67,3.75-5.56,5.4c-1.89,1.65-3.67,3.28-4.95,5.18c-2.41,3.59-5.21,6.56-8,9.56
				l0,0c-1.56,1.68-2.96,3.28-3.94,5c-0.98,1.72-1.57,3.53-1.58,5.74c0,0.93,0.11,1.94,0.35,3.04c0.34,1.57,0.5,3.11,0.5,4.62
				c0,3.6-0.89,7.04-2.25,10.3c-1.36,3.27-3.2,6.38-5.12,9.37l0,0c-0.28,0.44-0.56,0.82-0.73,1.14c-0.18,0.32-0.25,0.56-0.25,0.73
				c0.01,0.18,0.05,0.4,0.41,0.82l0,0c1.41,1.56,2.08,3.31,2.07,5.07c0,1.55-0.49,3.08-1.26,4.59l0,0l0,0
				c-0.15,0.28-0.29,0.51-0.38,0.69c-0.09,0.18-0.12,0.3-0.11,0.32l0.03,0.06c0.04,0.06,0.18,0.2,0.48,0.36l0,0
				c5.86,3.26,10.14,8.47,11.55,14.83c0.85,3.85,2.43,6.86,4.58,9.4c2.16,2.53,4.91,4.59,8.13,6.44l0,0
				c1.49,0.85,2.99,1.83,4.29,3.03l0,0c2.01,1.89,4.06,3.24,6.18,3.86l-0.26,0.91l-0.8,0.5c-7.5-12-11.81-26.18-11.81-41.37l0-0.1
				c0.07-43.31,35.2-78.35,78.27-78.35l0.16,0c43.24,0.1,78.28,35.18,78.28,78.2c0,0.09,0,0.19,0,0.28
				c-0.08,21.9-9.03,41.66-23.44,55.83l-0.66-0.68l-0.17-0.93c2.36-0.43,4.7-1.03,7.03-1.78l0,0c2.56-0.83,5.29-1.1,7.9-1.23l0.02,0
				l-0.02,0c6.03-0.3,12.07-0.59,18.14-0.59c0.83,0,1.67,0.01,2.5,0.02c0.34,0.01,0.67,0.01,1,0.01c1.09,0,2.13-0.05,3.09-0.28
				c0.96-0.23,1.82-0.62,2.63-1.33l0,0c0.33-0.29,0.72-0.46,1.07-0.55c0.36-0.09,0.69-0.1,1-0.11c0.36,0,0.67,0.02,0.93,0.02l0.05,0
				l0,0l0,0c0.56,0,1.12,0,1.68,0c14.2,0,28.37,0.69,42.51,1.71l0,0c3.31,0.25,6.68,0.36,10.09,0.89l0,0
				c2.25,0.36,4.14,1.25,6.02,1.88l-0.3,0.9l0.28-0.91c0.43,0.13,0.85,0.33,1.23,0.64c0.38,0.31,0.7,0.73,0.89,1.25l0,0
				c0.45,1.22,1.1,1.96,1.92,2.45c0.82,0.49,1.86,0.72,3.06,0.72c0.1,0,0.2,0,0.3,0c0.75-0.02,1.49-0.03,2.23-0.03
				c4.98,0,9.89,0.44,14.76,0.58l-0.03,0.95l-0.42-0.85c0.79-0.39,1.6-0.73,2.45-1.02l0,0c3.41-1.18,5.73-3.28,7.99-5.97l0,0
				c1.58-1.9,3.17-3.77,4.58-5.73l0,0c6.76-9.44,12.1-19.27,12.32-31.07v0L335.87,138.04z"/>
		</g>
		<g>
			<defs>
				<path id="SVGID_00000072238087015442109110000001516625920912863106_" d="M324.74,248.65c-1.29,0.06-1.36,1.31-1.87,2.13
					c-4.18,6.68-9.72,11.72-17.43,13.93c-5.9,1.69-7.1,3.36-5.94,9.34c0.85,4.42,0.16,8.42-2.83,11.93
					c-1.17,1.37-1.78,3.01-2.3,4.76c-1.25,4.2,0.44,8.36-0.12,12.58c-0.35,2.65,2.5,3.79,4.26,5.22c1.39,1.12,2.5-0.68,3.79-0.99
					c1.41-0.33,2.75-0.94,4.16-1.25c1.16-0.25,1.9-0.61,2.44-1.86c5.91-13.58,12.03-27.07,17.13-40.9c0.65,2.26,1.46,1.22,2.08-0.36
					c1.67-4.29,0.69-8.35-1.24-12.28c-0.45-0.92-0.65-2.24-2.05-2.24L324.74,248.65"/>
			</defs>
			<clipPath id="SVGID_00000101095567706299373610000013991729310890460592_">
				<use xlink:href="#SVGID_00000072238087015442109110000001516625920912863106_"  style="overflow:visible;"/>
			</clipPath>
			
				<linearGradient id="SVGID_00000098910682833938802800000004195778639739345336_" gradientUnits="userSpaceOnUse" x1="4066.4309" y1="-166.7457" x2="4067.4309" y2="-166.7457" gradientTransform="matrix(-3.4673 49.4084 49.4084 3.4673 22651.0645 -200081.3906)">
				<stop  offset="0" style="stop-color:#00AEEF"/>
				<stop  offset="1" style="stop-color:#1C75BC"/>
			</linearGradient>
			
				<polygon style="clip-path:url(#SVGID_00000101095567706299373610000013991729310890460592_);fill:url(#SVGID_00000098910682833938802800000004195778639739345336_);" points="
				334.06,248.95 329.62,312.22 288.87,309.36 293.31,246.09 			"/>
		</g>
		<g>
			<path d="M326.05,263.53l0.89,0.33c-5.12,13.87-11.24,27.38-17.15,40.95c-0.32,0.73-0.76,1.32-1.32,1.7
				c-0.56,0.39-1.17,0.57-1.79,0.7c-1.28,0.27-2.62,0.88-4.14,1.25c-0.23,0.04-0.65,0.3-1.13,0.63c-0.25,0.16-0.52,0.33-0.83,0.48
				c-0.32,0.14-0.69,0.26-1.12,0.26c-0.52,0.01-1.07-0.2-1.52-0.57c-0.74-0.61-1.83-1.22-2.79-2.03c-0.48-0.41-0.94-0.87-1.28-1.45
				c-0.35-0.57-0.57-1.27-0.57-2.03c0-0.18,0.01-0.37,0.04-0.57c0.08-0.59,0.11-1.18,0.11-1.78c0.01-2.25-0.46-4.62-0.47-7.11
				c0-1.25,0.12-2.53,0.51-3.83c0.53-1.79,1.17-3.57,2.48-5.11c2.07-2.44,2.93-5.04,2.94-7.95c0-1.02-0.11-2.08-0.32-3.18
				c-0.26-1.36-0.41-2.52-0.42-3.57c0-0.92,0.12-1.74,0.41-2.49c0.43-1.13,1.26-2.02,2.36-2.69c1.11-0.67,2.5-1.18,4.26-1.68
				c7.44-2.13,12.78-6.97,16.88-13.52c0.16-0.24,0.31-0.74,0.62-1.32c0.16-0.28,0.39-0.59,0.74-0.84c0.35-0.25,0.8-0.4,1.27-0.41
				l0.15,0c0.5,0,0.97,0.13,1.35,0.36c0.57,0.36,0.87,0.87,1.08,1.3c0.21,0.44,0.34,0.84,0.47,1.1l0,0
				c1.27,2.61,2.19,5.33,2.19,8.21c0,1.58-0.28,3.2-0.92,4.84c-0.2,0.5-0.41,0.97-0.68,1.37c-0.14,0.2-0.29,0.39-0.51,0.56
				c-0.21,0.17-0.52,0.33-0.91,0.34c-0.27,0-0.55-0.09-0.75-0.23c-0.31-0.21-0.49-0.47-0.64-0.75c-0.15-0.29-0.27-0.61-0.39-1.01
				L326.05,263.53l0.89,0.33L326.05,263.53l0.91-0.26c0.12,0.41,0.24,0.66,0.29,0.73l0.01,0.02l0,0l-0.24,0.23l0.15-0.29l0.1,0.07
				l-0.24,0.23l0.15-0.29l-0.25,0.5v-0.56c0.09,0,0.19,0.03,0.25,0.06l-0.25,0.5v-0.56v0.42l-0.27-0.34c0,0,0.09-0.07,0.27-0.08
				v0.42l-0.27-0.34l0.02-0.02c0.11-0.1,0.38-0.57,0.58-1.12c0.55-1.42,0.79-2.79,0.79-4.15c0-2.46-0.79-4.92-1.99-7.38l0,0
				c-0.27-0.57-0.43-1.09-0.62-1.38c-0.09-0.14-0.17-0.22-0.23-0.26c-0.07-0.04-0.14-0.08-0.35-0.08l-0.06,0
				c-0.17,0.01-0.21,0.04-0.26,0.07c-0.06,0.04-0.18,0.18-0.31,0.48c-0.14,0.29-0.27,0.7-0.54,1.13c-4.26,6.82-10,12.06-17.97,14.33
				c-2.25,0.64-3.72,1.28-4.52,2.01c-0.41,0.37-0.67,0.74-0.85,1.22c-0.18,0.47-0.28,1.06-0.28,1.81c0,0.86,0.13,1.92,0.38,3.21
				c0.23,1.2,0.36,2.38,0.36,3.54c0.01,3.3-1.04,6.43-3.39,9.19c-1.03,1.21-1.6,2.69-2.11,4.42c-0.32,1.08-0.43,2.17-0.43,3.29
				c-0.01,2.24,0.46,4.61,0.47,7.11c0,0.67-0.04,1.35-0.13,2.03c-0.01,0.11-0.02,0.22-0.02,0.32c0,0.41,0.1,0.73,0.3,1.06
				c0.29,0.49,0.84,0.99,1.51,1.47c0.67,0.49,1.44,0.96,2.13,1.51c0.19,0.15,0.26,0.15,0.33,0.15c0.06,0,0.17-0.02,0.33-0.09
				c0.24-0.11,0.56-0.33,0.93-0.57c0.38-0.24,0.81-0.52,1.38-0.66c1.28-0.3,2.63-0.91,4.17-1.26c0.54-0.12,0.88-0.24,1.11-0.41
				c0.23-0.17,0.43-0.39,0.66-0.9c5.92-13.59,12.03-27.06,17.11-40.85l1-2.71l0.8,2.78L326.05,263.53z"/>
			<path class="st13" d="M167.37,179.14c0.33,0.13,0.65,0.22,0.99,0.26c0.31-0.25,0.63-0.49,0.93-0.75
				C168.64,178.71,167.95,178.68,167.37,179.14 M124.35,51.44c-39.82-0.06-72.02,31.86-72.06,71.48
				c-0.03,15.21,4.67,29.31,12.71,40.93c0.54-0.17,1.09-0.39,1.66-0.65c1.07-0.5,2.4-0.52,3.62-0.63c5.46-0.51,11-1.55,16.23,0.9
				c1.65,0.77,2.75,0.56,4.28-0.12l0.63-0.28c-1.1-0.69-2.17-1.42-3.23-2.2c-6.89-5.01-12.64-11.15-17.44-18.17
				c-0.54-0.81-1.13-1.33-2.11-1.53c-1.25-0.27-2.43-0.77-3.45-1.56c-0.96-0.75-1.09-1.42-0.47-2.46c0.94-1.61,1.8-3.27,2.98-4.72
				c0.61-0.76,1.31-1.81,2.32-1.51c0.94,0.27,0.77,1.55,0.92,2.42c0.33,1.94-0.03,4,0.98,5.84c0.99,1.78,2.21,3.39,3.44,5
				c5.38,6.99,11.66,12.99,19.29,17.49c6.13-2.58,12.43-4.58,19.33-4.04c3.95,0.3,7.53,1.81,8.63,5.77c0.98,3.6,3.14,3.9,5.74,3.69
				c7.15-1.64,13.63-5.01,19.54-9.84c4.85-3.97,8.95-8.62,12.33-13.88c0.71-1.1,1.28-2.28,1.82-3.46c0.35-0.78,0.5-1.59,0.46-2.47
				c-0.07-1.86-0.11-3.73,0.36-5.56c0.4-1.55,1.05-1.73,2.2-0.59c0.8,0.8,1.39,1.73,1.91,2.71c0.89,1.71,1.75,3.43,2.6,5.16
				c0.68,1.37,0.45,2.27-0.81,3.22c-1.54,1.18-3.32,1.81-5.18,2.23c-0.62,0.13-1,0.41-1.36,0.95c-6.01,8.92-13.55,16.09-23.21,20.76
				c1.12,0.53,1.98,1.62,2.94,3.45c1.52,2.89,1.29,5.75-0.06,8.69c-0.54,1.18-0.82,2.44-1,3.72c1.68-0.06,3.02-1.09,4.61-1.38
				c2.7-0.48,5.43-0.85,8.1-1.47c0.45-0.1,2.59,0.61,1.39-1.41c0.26-0.14,0.49-0.33,0.76-0.4c1.85-0.42,3.68-0.98,5.69-0.44
				c-1.3,0.29-2.6,0.58-3.9,0.86c4.28,0.47,8.49-0.68,12.88-0.21c15.45-13.12,25.24-32.66,25.25-54.52
				C195.67,83.72,163.68,51.5,124.35,51.44 M98.62,104.71c-0.01,0.68-0.05,1.36-0.1,2.03c-0.08,0.89-0.21,1.77-0.39,2.64
				c-0.41,1.95-1.07,3.84-2.07,5.65c-0.57,1.04-1.26,1.98-2.16,2.76c-1.96,1.69-4,1.34-5.3-0.91c-0.8-1.38-1.16-2.92-1.26-4.48
				c-0.34-5.05,0.58-9.8,3.61-13.99c0.23-0.31,0.47-0.59,0.74-0.84c0.27-0.26,0.57-0.49,0.88-0.69h0.01
				c1.63-1.05,3.2-0.77,4.35,0.82c1.06,1.47,1.42,3.16,1.61,4.89c0.03,0.26,0.06,0.5,0.08,0.75c0.01,0.15,0.01,0.3,0.01,0.46
				C98.63,104.09,98.62,104.4,98.62,104.71 M134.39,105.93c-0.04,0.66-0.1,1.33-0.21,1.98c-0.37,2.4-1.13,4.78-2.37,7.01
				c-0.65,1.18-1.46,2.25-2.6,3.02c-1.38,0.96-2.79,0.9-3.9-0.12c-0.19-0.18-0.38-0.39-0.55-0.63c-0.09-0.11-0.16-0.24-0.24-0.36
				c-0.18-0.28-0.34-0.58-0.48-0.87c-0.1-0.22-0.2-0.44-0.27-0.65l-0.01-0.01c-0.1-0.26-0.18-0.52-0.25-0.79
				c-0.33-1.2-0.44-2.47-0.46-3.74c-0.04-1.91,0.14-3.78,0.56-5.6c0.15-0.64,0.32-1.25,0.52-1.87c0.07-0.21,0.13-0.41,0.21-0.62
				c0.15-0.41,0.31-0.81,0.48-1.2c0.18-0.41,0.37-0.8,0.57-1.19c0.08-0.16,0.16-0.32,0.25-0.47c0.26-0.47,0.54-0.93,0.86-1.36
				c0.22-0.28,0.45-0.56,0.7-0.82c0.25-0.27,0.51-0.5,0.81-0.73c1.88-1.44,3.73-1.12,4.97,0.91c1.23,2.03,1.44,4.29,1.45,6.79
				C134.44,105.05,134.42,105.5,134.39,105.93"/>
			<path d="M167.37,179.14l0.35-0.88c0.27,0.11,0.5,0.17,0.74,0.19l-0.11,0.94l-0.59-0.74c0.31-0.25,0.62-0.49,0.91-0.73l0.61,0.73
				l0.08,0.94c-0.37,0.03-0.67,0.04-0.9,0.08c-0.23,0.04-0.37,0.1-0.51,0.21L167.37,179.14l0.35-0.88L167.37,179.14l-0.59-0.74
				c0.44-0.36,0.94-0.52,1.36-0.59c0.42-0.07,0.79-0.08,1.07-0.1l2.99-0.26l-2.3,1.93c-0.32,0.27-0.64,0.52-0.95,0.77l-0.31,0.24
				l-0.39-0.04c-0.42-0.05-0.83-0.16-1.23-0.32l-1.51-0.6l1.27-1.02L167.37,179.14z M124.35,51.44l0,0.95l-0.11,0
				c-39.26,0-70.96,31.48-71.01,70.53l0,0.14c0,14.95,4.63,28.82,12.54,40.25L65,163.85l-0.29-0.9c0.5-0.16,1.01-0.36,1.54-0.61l0,0
				c1.34-0.62,2.77-0.6,3.94-0.71l-0.01,0c2.76-0.26,5.6-0.66,8.47-0.66c2.74,0,5.53,0.38,8.25,1.65l0.02,0.01l-0.02-0.01
				c0.64,0.3,1.12,0.4,1.56,0.4c0.55,0,1.13-0.17,1.93-0.53l0,0l0.63-0.28l0.39,0.86l-0.5,0.8c-1.12-0.7-2.21-1.45-3.29-2.24l0,0
				c-6.99-5.08-12.81-11.3-17.67-18.4l0,0l0,0c-0.24-0.35-0.45-0.59-0.68-0.76c-0.23-0.17-0.47-0.28-0.84-0.36l-0.01,0l0,0
				c-1.37-0.29-2.69-0.85-3.84-1.74l0,0c-0.34-0.27-0.63-0.55-0.85-0.9c-0.22-0.35-0.36-0.77-0.36-1.2c0-0.58,0.21-1.09,0.51-1.59
				l0,0.01c0.93-1.58,1.81-3.29,3.06-4.84l0,0c0.25-0.31,0.55-0.73,0.96-1.12c0.21-0.19,0.44-0.38,0.73-0.54
				c0.29-0.15,0.64-0.26,1.02-0.26c0.21,0,0.42,0.03,0.63,0.09l0,0c0.43,0.12,0.81,0.41,1.03,0.74c0.33,0.5,0.4,0.99,0.45,1.4
				c0.05,0.42,0.06,0.79,0.1,1.02l0,0.01l0,0c0.18,1.08,0.17,2.11,0.25,3.05c0.07,0.94,0.22,1.76,0.63,2.5l0,0
				c0.94,1.7,2.13,3.28,3.36,4.88c5.33,6.91,11.51,12.82,19.02,17.25l-0.48,0.82l-0.37-0.87c5.5-2.31,11.2-4.2,17.42-4.2
				c0.78,0,1.56,0.03,2.35,0.09l0,0c2.07,0.16,4.09,0.63,5.8,1.65c1.7,1.01,3.07,2.61,3.67,4.82l0,0.01c0.38,1.4,0.91,2.1,1.46,2.49
				c0.56,0.39,1.29,0.55,2.24,0.55c0.33,0,0.67-0.02,1.04-0.05l0.08,0.94l-0.21-0.92c6.99-1.61,13.34-4.89,19.15-9.65
				c4.78-3.91,8.8-8.48,12.14-13.66l0,0c0.67-1.03,1.22-2.17,1.75-3.34l0,0c0.26-0.58,0.39-1.17,0.39-1.82l0-0.22l0-0.01
				c-0.02-0.61-0.04-1.23-0.04-1.86c0-1.29,0.08-2.62,0.43-3.97l0,0c0.13-0.51,0.29-0.93,0.56-1.32c0.14-0.19,0.32-0.37,0.55-0.51
				c0.23-0.14,0.51-0.21,0.78-0.21c0.41,0,0.74,0.14,1.04,0.32c0.3,0.18,0.57,0.41,0.85,0.69l0,0c0.89,0.89,1.54,1.92,2.08,2.93
				l0,0.01l0,0c0.9,1.72,1.76,3.45,2.61,5.18l0-0.01c0.29,0.58,0.47,1.15,0.48,1.75c0,0.53-0.16,1.05-0.44,1.49
				c-0.28,0.44-0.66,0.81-1.12,1.16l0.01,0c-1.69,1.3-3.62,1.97-5.55,2.4l-0.01,0l0,0c-0.22,0.05-0.33,0.1-0.44,0.17
				c-0.1,0.07-0.2,0.17-0.34,0.38l0,0l0,0c-6.08,9.03-13.75,16.33-23.58,21.08l-0.41-0.85l0.41-0.86c0.7,0.33,1.31,0.84,1.85,1.49
				c0.54,0.65,1.02,1.43,1.52,2.38l0,0c0.79,1.5,1.16,3.03,1.16,4.56c0,1.68-0.44,3.34-1.19,4.97l0,0
				c-0.49,1.07-0.76,2.23-0.93,3.46l-0.94-0.13l-0.03-0.95c0.65-0.02,1.29-0.24,2.01-0.53c0.72-0.29,1.51-0.66,2.45-0.83l0,0l0,0
				c2.73-0.49,5.44-0.86,8.05-1.46l0,0c0.15-0.03,0.25-0.03,0.34-0.04c0.18,0,0.32,0.02,0.47,0.03c0.14,0.01,0.28,0.02,0.38,0.02
				l0.14-0.01l0.01,0l0.1,0.39l-0.29-0.26c0.1-0.11,0.19-0.13,0.19-0.13l0.1,0.39l-0.29-0.26l0.36,0.34l-0.51,0
				c-0.01-0.05,0.04-0.23,0.14-0.34l0.36,0.34l-0.51,0h0.17l-0.17,0.02l0-0.02h0.17l-0.17,0.02l-0.01-0.03
				c-0.02-0.06-0.08-0.23-0.22-0.46l-0.5-0.84l0.85-0.47c0.08-0.04,0.2-0.12,0.35-0.21c0.16-0.09,0.36-0.2,0.64-0.27l0.01,0l0.01,0
				c1.27-0.28,2.63-0.68,4.16-0.68c0.64,0,1.3,0.07,1.98,0.26l3.7,0.99L161.6,178c-1.3,0.29-2.6,0.58-3.9,0.86l-0.2-0.93l0.1-0.94
				c0.71,0.08,1.43,0.11,2.16,0.11c2.66,0,5.41-0.44,8.31-0.44c0.79,0,1.6,0.03,2.41,0.12l-0.1,0.94l-0.61-0.72
				c15.25-12.95,24.91-32.22,24.92-53.8v-0.07c0-38.94-31.56-70.7-70.34-70.75L124.35,51.44l0-0.95
				c39.84,0.06,72.23,32.67,72.23,72.65v0.07c-0.01,22.15-9.93,41.95-25.59,55.24l-0.31,0.26l-0.4-0.04
				c-0.73-0.08-1.47-0.11-2.21-0.11c-2.71,0-5.45,0.44-8.31,0.44c-0.78,0-1.57-0.03-2.36-0.12l-5.73-0.63l5.63-1.23
				c1.3-0.28,2.6-0.57,3.89-0.86l0.21,0.92l-0.25,0.92c-0.5-0.14-0.99-0.19-1.49-0.19c-1.18,0-2.41,0.33-3.74,0.64l-0.21-0.92
				l0.23,0.92l-0.03,0.01c-0.07,0.03-0.24,0.15-0.5,0.3l-0.46-0.83l0.82-0.48c0.29,0.51,0.48,0.92,0.49,1.44
				c0,0.24-0.06,0.52-0.21,0.75c-0.22,0.36-0.56,0.53-0.82,0.61c-0.26,0.08-0.49,0.09-0.69,0.09c-0.21,0-0.39-0.02-0.54-0.03
				c-0.15-0.01-0.27-0.02-0.3-0.02l0,0l-0.02-0.45l0.1,0.44l-0.08,0.01l-0.02-0.45l0.1,0.44l0,0c-2.72,0.63-5.47,1-8.14,1.48l0.01,0
				c-0.64,0.12-1.32,0.41-2.08,0.73c-0.77,0.31-1.64,0.64-2.66,0.67l-1.13,0.04l0.16-1.12c0.19-1.33,0.49-2.68,1.08-3.98l0,0
				c0.66-1.45,1.02-2.84,1.02-4.18c0-1.22-0.29-2.42-0.94-3.67l0,0c-0.46-0.88-0.89-1.55-1.3-2.04c-0.41-0.49-0.79-0.79-1.21-0.99
				l-1.79-0.85l1.78-0.86c9.49-4.59,16.89-11.62,22.83-20.44l0,0c0.22-0.34,0.5-0.64,0.83-0.88c0.34-0.24,0.72-0.39,1.12-0.47
				l-0.01,0c1.79-0.4,3.43-0.99,4.81-2.05l0.01,0c0.34-0.26,0.56-0.49,0.67-0.67c0.11-0.18,0.14-0.3,0.15-0.47
				c0-0.19-0.07-0.49-0.27-0.91l0-0.01c-0.84-1.72-1.7-3.44-2.59-5.14l0,0.01c-0.5-0.93-1.05-1.79-1.75-2.49l0,0
				c-0.21-0.21-0.39-0.35-0.49-0.41l-0.1-0.05l0-0.01l0,0.01l0,0l0-0.01l0,0.01l0.04-0.22v0.22l-0.04,0l0.04-0.22v0.22v-0.34
				l0.17,0.29l-0.17,0.05v-0.34l0.17,0.29l-0.12-0.2l0.15,0.18l-0.03,0.02l-0.12-0.2l0.15,0.18l-0.03-0.04l0.04,0.04l-0.01,0
				l-0.03-0.04l0.04,0.04c-0.02,0.01-0.16,0.25-0.27,0.68l0,0c-0.29,1.12-0.37,2.28-0.37,3.49c0,0.59,0.02,1.19,0.04,1.79l0-0.01
				c0,0.1,0.01,0.2,0.01,0.3c0,0.91-0.18,1.78-0.55,2.6l0,0l0,0c-0.55,1.2-1.13,2.42-1.89,3.58l0,0c-3.43,5.34-7.6,10.06-12.53,14.1
				c-6,4.91-12.62,8.36-19.93,10.03l-0.07,0.02l-0.07,0.01c-0.4,0.03-0.8,0.05-1.19,0.05c-1.14,0-2.31-0.18-3.32-0.89
				c-1.02-0.71-1.76-1.88-2.21-3.55l0,0.01c-0.49-1.75-1.47-2.88-2.82-3.7c-1.35-0.81-3.09-1.24-4.97-1.38l0,0
				c-0.74-0.06-1.48-0.09-2.2-0.09c-5.82,0-11.27,1.78-16.68,4.05l-0.44,0.18l-0.41-0.24c-7.75-4.57-14.12-10.67-19.56-17.73
				c-1.23-1.61-2.49-3.25-3.52-5.12l0,0c-0.6-1.1-0.77-2.22-0.85-3.26c-0.08-1.04-0.08-2.01-0.23-2.87l0,0
				c-0.09-0.56-0.09-1.08-0.16-1.41c-0.03-0.16-0.08-0.25-0.09-0.26l0,0l0.04-0.03l-0.03,0.04l-0.01-0.01l0.04-0.03l-0.03,0.04l0,0
				l0,0l0,0l0,0l0,0l-0.01,0l-0.01,0h0l-0.08-0.01l-0.15,0.04c-0.11,0.05-0.29,0.2-0.48,0.42c-0.19,0.21-0.39,0.48-0.6,0.75l0,0l0,0
				c-1.1,1.35-1.94,2.96-2.89,4.6l0,0l0,0c-0.2,0.34-0.24,0.54-0.24,0.62c0,0.06,0,0.09,0.06,0.18c0.06,0.09,0.19,0.24,0.42,0.42
				l0,0c0.9,0.7,1.93,1.14,3.07,1.39l-0.01,0c0.61,0.12,1.16,0.37,1.61,0.71c0.45,0.34,0.8,0.76,1.1,1.22l-0.01-0.01
				c4.75,6.95,10.42,13,17.22,17.94l0.01,0.01l-0.01,0c1.04,0.76,2.1,1.48,3.18,2.16l1.49,0.94l-2.23,1.01l0,0
				c-0.89,0.4-1.75,0.69-2.71,0.7c-0.76,0-1.54-0.19-2.36-0.58l0,0c-2.4-1.12-4.87-1.47-7.45-1.47c-2.69,0-5.47,0.39-8.29,0.66
				l-0.01,0l0,0c-1.27,0.1-2.5,0.15-3.3,0.54l0,0c-0.6,0.28-1.19,0.51-1.77,0.7l-0.67,0.21l-0.4-0.58
				c-8.12-11.74-12.88-25.98-12.88-41.33l0-0.14c0.05-40.11,32.61-72.42,72.91-72.42l0.11,0L124.35,51.44z M98.62,104.71l0.95,0.01
				c-0.01,0.71-0.05,1.4-0.11,2.1c-0.08,0.93-0.22,1.85-0.4,2.75l0,0c-0.42,2.03-1.12,4.01-2.16,5.91l0,0
				c-0.61,1.12-1.37,2.16-2.37,3.02l-0.01,0.01l0.01-0.01c-0.94,0.81-1.99,1.29-3.07,1.29c-0.74,0-1.46-0.23-2.09-0.66
				c-0.62-0.43-1.15-1.03-1.58-1.78l0,0c-0.89-1.54-1.27-3.23-1.39-4.89c-0.05-0.67-0.07-1.35-0.07-2.01c0-4.47,1.09-8.77,3.86-12.6
				l0,0c0.26-0.36,0.55-0.68,0.85-0.97l0.01-0.01l0.01-0.01c0.31-0.29,0.65-0.56,1.02-0.8l0.23-0.15h0.28v0.95l-0.51-0.8
				c0.76-0.49,1.57-0.77,2.4-0.77c0.63,0,1.25,0.17,1.8,0.49c0.55,0.32,1.03,0.78,1.44,1.35l0,0c1.21,1.67,1.59,3.55,1.78,5.34
				l-0.94,0.1l0.94-0.11c0.03,0.26,0.06,0.52,0.08,0.79l0,0l0,0.01c0.01,0.19,0.01,0.36,0.01,0.52c0,0.32-0.01,0.63-0.01,0.92v0.01
				l0,0.01L98.62,104.71h-0.95c0-0.33,0.01-0.64,0.01-0.92c0-0.15,0-0.28-0.01-0.39l0.95-0.06l-0.95,0.07
				c-0.02-0.23-0.04-0.46-0.07-0.71l0,0l0-0.01c-0.18-1.68-0.52-3.17-1.44-4.44l0,0c-0.28-0.39-0.58-0.66-0.86-0.82
				c-0.28-0.16-0.55-0.23-0.84-0.23c-0.38,0-0.84,0.13-1.37,0.47l-0.23,0.15h-0.29v-0.95l0.51,0.8c-0.25,0.16-0.5,0.36-0.75,0.59
				l-0.65-0.69l0.66,0.68c-0.23,0.22-0.44,0.46-0.63,0.72l-0.01,0.01l0.01-0.01c-2.51,3.47-3.49,7.31-3.5,11.49
				c0,0.62,0.02,1.25,0.06,1.89c0.1,1.46,0.43,2.85,1.14,4.08l0,0c0.32,0.56,0.67,0.93,1.01,1.16c0.34,0.23,0.66,0.33,1.01,0.33
				c0.5,0,1.13-0.22,1.83-0.83l0,0c0.8-0.69,1.42-1.53,1.95-2.49l0,0c0.95-1.72,1.58-3.52,1.97-5.39l0,0
				c0.17-0.84,0.3-1.68,0.37-2.53c0.06-0.65,0.09-1.3,0.1-1.96L98.62,104.71h-0.95H98.62z M134.39,105.93l0.95,0.05
				c-0.04,0.69-0.11,1.38-0.22,2.08l0-0.01c-0.38,2.5-1.18,4.99-2.48,7.33c-0.69,1.25-1.59,2.46-2.89,3.35l0,0
				c-0.78,0.54-1.64,0.85-2.5,0.85c-0.95,0-1.86-0.39-2.58-1.06l0,0l0,0c-0.23-0.21-0.46-0.47-0.67-0.76l0.77-0.55l-0.76,0.57
				c-0.12-0.16-0.21-0.31-0.29-0.43l0.81-0.5l-0.8,0.51c-0.2-0.32-0.38-0.64-0.54-0.97l0,0l0,0c-0.11-0.24-0.22-0.49-0.31-0.75
				l0.9-0.31l-0.68,0.66l-0.01-0.01l-0.14-0.14l-0.07-0.19c-0.11-0.29-0.2-0.59-0.28-0.89l0.92-0.23l-0.91,0.25
				c-0.36-1.32-0.47-2.67-0.49-3.98v0c0-0.17-0.01-0.34-0.01-0.52c0-1.81,0.19-3.58,0.59-5.32l0,0l0,0c0.16-0.66,0.33-1.3,0.54-1.94
				l0-0.01l0,0.01c0.07-0.21,0.14-0.42,0.22-0.65l0,0l0,0c0.16-0.42,0.32-0.84,0.5-1.25l0-0.01l0,0c0.19-0.43,0.39-0.83,0.59-1.23
				l0.85,0.42l-0.86-0.4c0.09-0.19,0.18-0.37,0.28-0.54l0.82,0.47l-0.83-0.45c0.27-0.51,0.58-1,0.94-1.48l0,0l0,0
				c0.23-0.3,0.49-0.61,0.78-0.91l0.67,0.67l-0.7-0.64c0.29-0.31,0.6-0.58,0.92-0.84l0,0c0.89-0.68,1.85-1.08,2.84-1.08
				c0.7,0,1.39,0.21,1.99,0.61c0.6,0.39,1.1,0.95,1.53,1.64l0,0c1.38,2.27,1.58,4.74,1.59,7.28v0c0,0.46-0.02,0.93-0.05,1.38l0-0.01
				L134.39,105.93l-0.95-0.06c0.03-0.42,0.05-0.85,0.05-1.26v0c-0.01-2.45-0.22-4.51-1.31-6.3l0,0c-0.31-0.5-0.64-0.84-0.95-1.05
				c-0.32-0.21-0.61-0.29-0.95-0.29c-0.46,0-1.03,0.19-1.68,0.69l0,0c-0.26,0.2-0.49,0.41-0.69,0.62l-0.01,0.01l-0.01,0.01
				c-0.21,0.21-0.42,0.46-0.62,0.72l-0.75-0.58l0.76,0.57c-0.29,0.38-0.55,0.8-0.78,1.24l-0.01,0.01l-0.01,0.01
				c-0.07,0.13-0.15,0.27-0.21,0.41l0,0.01l0,0.01c-0.2,0.39-0.38,0.77-0.55,1.16l-0.87-0.38l0.87,0.37
				c-0.17,0.39-0.32,0.77-0.47,1.16l0-0.01c-0.07,0.19-0.13,0.38-0.2,0.58l0,0c-0.19,0.59-0.35,1.18-0.5,1.8l0-0.01
				c-0.36,1.59-0.54,3.22-0.54,4.89c0,0.16,0,0.32,0,0.48l0,0v0c0.02,1.23,0.12,2.42,0.42,3.51l0,0.01l0,0.01
				c0.06,0.23,0.13,0.46,0.21,0.68l-0.89,0.33l0.68-0.66l0.01,0.01l0.15,0.15l0.07,0.2c0.06,0.17,0.14,0.36,0.23,0.56l0-0.01
				c0.13,0.26,0.27,0.53,0.43,0.78l0,0.01l0,0c0.08,0.12,0.14,0.22,0.19,0.29l0,0.01l0.01,0.01c0.13,0.18,0.28,0.35,0.43,0.49
				l-0.65,0.69l0.64-0.7c0.44,0.4,0.85,0.55,1.29,0.55c0.41,0,0.88-0.14,1.42-0.51l0,0c0.97-0.66,1.69-1.6,2.3-2.7
				c1.18-2.13,1.91-4.4,2.26-6.7l0,0l0,0c0.1-0.62,0.16-1.25,0.2-1.89l0,0l0,0L134.39,105.93z"/>
			<path class="st6" d="M94.62,161.67c-1.07,0.45-2.14,0.92-3.22,1.4c-1.09-0.69-2.16-1.42-3.23-2.2
				c-6.89-5.02-12.63-11.15-17.44-18.18c-0.55-0.8-1.13-1.33-2.12-1.53c-1.25-0.26-2.43-0.77-3.44-1.56
				c-0.96-0.74-1.09-1.42-0.48-2.45c0.94-1.6,1.8-3.27,2.97-4.72c0.61-0.75,1.31-1.81,2.33-1.51c0.94,0.28,0.77,1.55,0.92,2.42
				c0.34,1.94-0.03,4.01,0.98,5.84c0.98,1.78,2.21,3.39,3.44,5C80.72,151.16,86.99,157.16,94.62,161.67"/>
			<path class="st6" d="M168.72,142.38c-1.53,1.18-3.32,1.81-5.17,2.22c-0.62,0.13-1,0.4-1.37,0.94
				c-6.01,8.93-13.55,16.09-23.21,20.77c-1.17-0.56-2.63-0.51-4.79-0.07c-1.64,0.34-3.31,0.58-4.98,0.76
				c-0.3,0.03-0.6,0.06-0.9,0.08c7.14-1.64,13.62-5.01,19.53-9.84c4.85-3.97,8.95-8.62,12.34-13.87c0.71-1.1,1.28-2.27,1.82-3.46
				c0.35-0.78,0.5-1.6,0.47-2.47c-0.07-1.86-0.12-3.73,0.36-5.56c0.4-1.54,1.05-1.73,2.2-0.59c0.79,0.79,1.39,1.73,1.91,2.71
				c0.9,1.71,1.75,3.43,2.6,5.15C170.22,140.52,169.99,141.42,168.72,142.38"/>
			<path class="st6" d="M134.44,104.62c-0.04,3.52-0.82,7.05-2.63,10.31c-0.66,1.18-1.46,2.25-2.59,3.02
				c-1.63,1.12-3.29,0.85-4.44-0.75c-1.38-1.91-1.67-4.17-1.71-6.42c-0.07-3.67,0.66-7.2,2.33-10.49c0.65-1.28,1.46-2.48,2.63-3.37
				c1.88-1.45,3.72-1.13,4.96,0.91C134.22,99.85,134.42,102.12,134.44,104.62"/>
			<path class="st6" d="M98.62,104.7c-0.05,3.64-0.8,7.11-2.56,10.33c-0.57,1.04-1.26,1.98-2.17,2.76c-1.96,1.69-4,1.34-5.29-0.91
				c-0.8-1.38-1.15-2.91-1.26-4.48c-0.34-5.05,0.58-9.8,3.61-13.99c0.44-0.61,1-1.13,1.63-1.54c1.63-1.06,3.21-0.77,4.35,0.82
				c1.21,1.68,1.51,3.65,1.68,5.64C98.65,103.79,98.62,104.25,98.62,104.7"/>
			<path d="M170.85,177.78c-0.4,0.68-0.96,0.82-1.56,0.87c0.38-0.29,0.74-0.61,1.1-0.92C170.54,177.74,170.69,177.76,170.85,177.78"
				/>
		</g>
		<path d="M317.72,203.6c-0.39,1.74-1.13,2.91-2.03,2.87c-1.26-0.06-2.13-2.49-2-5.52c0.13-2.97,1.39-5.36,2.55-5.29
			c0.68,0.03,1.16,0.71,1.48,1.78L317.72,203.6L317.72,203.6z M322.08,206.12v-18.37c0-0.16-0.1-0.19-0.19-0.13
			c-1.32,0.87-3.23,1.45-5.07,1.52c-0.16,0.03-0.13,0.16,0,0.26c0.16,0.13,0.9,0.45,0.9,1.16v5.04c-0.81-0.84-1.81-1.36-2.94-1.36
			c-2.65,0-5.04,2.26-5.04,6.65c0,4.29,2.39,6.62,5.04,6.62c1.13,0,2.13-0.52,2.94-1.36v1.36h5.65v-0.26
			C323.11,207.25,322.08,206.6,322.08,206.12z M309.2,194.59h-2.39v-4.29c0-0.16-0.13-0.23-0.19-0.13
			c-1.94,2.94-4.65,4.07-5.07,4.33c-0.65,0.36-0.74,0.74,0,0.74c0.29,0.03,0.9-0.03,0.9,0.68l0.03,9.68c0,1.1,1.61,2.36,3.16,2.36
			c1.84,0,3.42-0.68,3.62-2.29c0-0.1-0.06-0.13-0.13-0.13c-0.06,0-0.13,0.03-0.16,0.13c-0.19,0.55-0.48,0.9-1.1,1.03
			c-0.58,0.06-1.03-0.32-1.03-1.1l-0.03-10.23h2.39C309.43,195.37,309.4,194.59,309.2,194.59z M300.74,201.38
			c0-0.16-0.65-0.19-0.74,0c-0.84,5.04-4.87,4.75-7.91,4.75v-16.59c0-0.48,1.07-1.61,1.36-1.61v-0.26h-7v0.26
			c0.26,0,1.29,1.13,1.29,1.61v16.11c0,0.48-1,1.61-1.29,1.61v0.26h13.52L300.74,201.38z M271.66,200.92l0.03,4.1
			C267.88,206.21,268.01,201.53,271.66,200.92z M277.79,205.5c-0.06,0-0.13,0.03-0.16,0.13c-0.13,0.45-0.58,0.65-0.97,0.61
			c-0.52-0.06-0.61-0.48-0.61-1.1l-0.03-5.33c0-6.75-10.04-6.26-10.04-1.78c0,0.84,0.45,1.94,1.74,2.16c1.1,0.19,2.49-0.65,2.26-2.1
			c-1.1-0.71-0.55-2.49,0.42-2.49c0.77,0,1.26,0.55,1.26,1.55v3.16c-9.56,0.84-7.1,10.78,0.26,5.65c0.39,0.81,1.32,1.52,2.49,1.52
			c1.39,0,3.32-0.61,3.52-1.87C277.92,205.53,277.86,205.5,277.79,205.5z M250.22,197.28c0-1.36,0.42-8.46,4.84-8.42
			c4.33,0.03,4.58,7.07,4.58,8.52c0,1.1-0.48,8.94-4.84,8.88C250.41,206.22,250.22,198.48,250.22,197.28z M261.61,212.68
			c3.1-0.1,3.07-3.55,3.03-4.39c0-0.13-0.23-0.13-0.26,0c-0.06,0.19-0.23,0.39-0.81,0.71c-2.55,1.42-8.33-0.77-11.46-1.32
			c0.81-0.1,1.84-0.23,2.29-0.16h0.39c5.1,0.06,9.36-4.49,9.36-10.07c0-5.81-4.03-9.81-9.1-9.88c-5.13-0.06-9.39,4.07-9.39,9.65
			c0,4.94,2.91,8.88,6.91,9.97c-0.87,0.13-1.68,0.32-2.13,0.42c-1.71,0.36-1.94,2.1-1.13,2.84c0.58,0.52,1.42,0.13,1.45-0.58
			c0.03-0.48-0.32-0.81-0.52-0.87c0.35-0.36,1.06-0.42,2.49,0.29C253.77,209.81,258.94,212.78,261.61,212.68z M243.51,206.12
			c0-0.39,0-10.43,0-11.17v-0.74c0-0.16-0.1-0.19-0.19-0.13c-1.32,0.87-3.29,1.39-5.07,1.52c-0.16,0.03-0.13,0.16,0,0.26
			c0.16,0.13,0.9,0.45,0.9,1.16v9.1c0,0.48-1.03,1.13-1.29,1.13v0.26h7v-0.26C244.58,207.25,243.51,206.6,243.51,206.12z
			 M240.96,193.85c1.39,0,2.49-1.1,2.49-2.49c0-1.39-1.1-2.52-2.49-2.52c-1.39,0-2.52,1.13-2.52,2.52
			C238.44,192.75,239.57,193.85,240.96,193.85z M237.03,195.46c-0.74-2-4.03-1.68-5.62,0.87c0-0.42,0-0.94,0-1.39v-0.74
			c0-0.16-0.1-0.19-0.19-0.13c-1.32,0.87-3.29,1.39-5.07,1.52c-0.16,0.03-0.13,0.16,0,0.26c0.16,0.13,0.9,0.45,0.9,1.16v9.1
			c0,0.48-1.03,1.13-1.29,1.13v0.26h7v-0.26c-0.29,0-1.36-0.65-1.36-1.13v-8.75c0.9-1.58,2.91-1.16,3.26,0.42
			C235.16,199.18,237.77,197.43,237.03,195.46z M217.41,193.69v0.9h-1.74c-0.23,0-0.26,0.77,0,0.77h1.74l-0.03,10.75
			c0,0.48-1.03,1.13-1.29,1.13v0.26h7v-0.26c-0.29,0-1.36-0.65-1.36-1.13l0.03-10.75h3.32c0.26,0,0.23-0.77,0-0.77h-3.32v-4.84
			c0-1,0.61-2.16,1.74-2.16c1.78,0,2.26,3.03,0.87,3.97c0,1.29,1.07,1.9,2.26,1.71c1.29-0.23,1.84-1.65,1.84-2.94
			C228.48,184.91,217.41,184.39,217.41,193.69z M204.73,191.08l2.61,7.68h-5.16L204.73,191.08z M200.8,207.26
			c-0.45,0-1.23-0.58-0.9-1.61l2-6.07h5.71l2.07,6.07c0.29,0.71-1.03,1.61-1.29,1.61v0.26h7v-0.26c-0.29,0-1.1-0.94-1.36-1.61
			l-6-17.98c-2.23,1.42-3.97,1.16-4.1,1.42c-0.1,0.19,0.23,0.29,0.32,0.55l-5.33,16.01c-0.26,0.74-1,1.61-1.42,1.61v0.26h3.29
			V207.26z M189.58,195.46c-0.74-2-4.03-1.68-5.62,0.87c0-0.42,0-0.94,0-1.39v-0.74c0-0.16-0.1-0.19-0.19-0.13
			c-1.32,0.87-3.29,1.39-5.07,1.52c-0.16,0.03-0.13,0.16,0,0.26c0.16,0.13,0.9,0.45,0.9,1.16v9.1c0,0.48-1.03,1.13-1.29,1.13v0.26h7
			v-0.26c-0.29,0-1.36-0.65-1.36-1.13v-8.75c0.9-1.58,2.91-1.16,3.26,0.42C187.71,199.18,190.32,197.43,189.58,195.46z M171,206.63
			c-1.29,0-2.39-2.61-2.39-5.81c0-3.2,1.1-5.81,2.39-5.81c1.32,0,2.42,2.61,2.42,5.81C173.42,204.02,172.32,206.63,171,206.63z
			 M171,194.17c-3.52,0-6.46,2.97-6.46,6.65s2.94,6.65,6.46,6.65c3.58,0,6.49-2.97,6.49-6.65S174.58,194.17,171,194.17z
			 M162.49,206.12v-7.52c0-5.33-3.87-5.75-8.26-1.52c-0.68-3.87-4.1-3.84-8.04-0.06c0-0.39,0-1.32,0-2.07v-0.74
			c0-0.16-0.1-0.19-0.19-0.13c-1.32,0.87-3.29,1.39-5.07,1.52c-0.16,0.03-0.13,0.16,0,0.26c0.16,0.13,0.9,0.45,0.9,1.16v9.1
			c0,0.48-1.03,1.13-1.29,1.13v0.26h7v-0.26c-0.29,0-1.36-0.65-1.36-1.13v-8.04c1.16-1.48,3.81-3,3.81,0.52v7.52
			c0,0.48-1.03,1.13-1.29,1.13v0.26h7v-0.26c-0.29,0-1.36-0.65-1.36-1.13v-8.07c1.16-1.45,3.78-2.94,3.78,0.55v7.52
			c0,0.48-1.03,1.13-1.29,1.13v0.26h7v-0.26C163.56,207.25,162.49,206.6,162.49,206.12z M135.07,200.11h-2.81
			c-0.35-2.13,0.32-4.49,1.71-4.49c1.32,0,2.52,2.07,2.52,2.94C136.49,199.27,136.1,200.11,135.07,200.11L135.07,200.11z
			 M139.75,200.73c0-3.62-2.32-6.1-5.36-6.1c-2.97,0-5.58,2.29-5.58,6.62c0,3.55,2.68,6.26,5.65,6.26c2.49,0,4.42-1.68,4.87-4.16
			c0.03-0.19-0.32-0.16-0.39,0c-0.55,1.13-1.48,1.74-2.55,1.68c-1.84-0.1-3.45-1.39-3.97-3.78l-0.06-0.29h7.39L139.75,200.73
			L139.75,200.73z M127.85,187.89v-0.26h-7v0.26c0.26,0,1.29,1.13,1.29,1.61v7.59h-6.65v-7.59c0-0.48,1.07-1.61,1.36-1.61v-0.26h-7
			v0.26c0.26,0,1.29,1.13,1.29,1.61v16.14c0,0.48-1.03,1.61-1.29,1.61v0.26h7v-0.26c-0.29,0-1.36-1.13-1.36-1.61v-7.75h6.65v7.75
			c0,0.48-1.03,1.61-1.29,1.61v0.26h7v-0.26c-0.29,0-1.36-1.13-1.36-1.61V189.5C126.49,189.02,127.56,187.89,127.85,187.89z"/>
		<path class="st14" d="M292.89,224.04c-0.52,0.73-1.21,1.26-2.11,1.26c-1.1,0-1.69-0.82-1.69-1.97c0-1.58,0.93-3.29,2.61-3.29
			c0.82,0,1.43,0.44,1.68,1.18L292.89,224.04z M293.6,219.95c-0.27-0.52-0.95-1-1.93-1c-2.24,0-3.8,2.13-3.8,4.38
			c0,1.74,0.87,3.06,2.66,3.06c0.87,0,1.68-0.48,2.14-1.03l-0.18,0.89h1.22l1.84-10.47h-1.22L293.6,219.95z M277.67,219.98
			c1.03,0,1.53,0.77,1.53,1.69c0,0.1,0,0.19-0.02,0.31h-3.85C275.68,220.88,276.45,219.98,277.67,219.98z M278.85,224.1
			c-0.31,0.81-1.03,1.26-1.89,1.26c-1.16,0-1.8-0.79-1.8-2.11c0-0.11,0-0.23,0.02-0.35h5.08c0.08-0.42,0.13-0.81,0.13-1.1
			c0-1.71-0.9-2.85-2.66-2.85c-2.38,0-3.77,2.19-3.77,4.3c0,1.9,1.11,3.14,2.95,3.14c1.58,0,2.76-0.93,3.17-2.29H278.85z
			 M267.28,219.06c-0.11-0.06-0.37-0.11-0.68-0.11c-0.79,0-1.56,0.47-1.97,1.08l0.16-0.93h-1.21l-1.26,7.15h1.21l0.85-4.8
			c0.39-0.84,1.13-1.34,1.89-1.34c0.31,0,0.6,0.06,0.77,0.19L267.28,219.06z M255.55,216.93c0-0.44-0.35-0.77-0.79-0.77
			c-0.42,0-0.77,0.34-0.77,0.77c0,0.42,0.35,0.77,0.77,0.77C255.19,217.71,255.55,217.35,255.55,216.93z M254.98,219.09h-1.21
			l-1.26,7.15h1.21L254.98,219.09z M240.03,221.3c0.52-0.73,1.21-1.26,2.11-1.26c1.1,0,1.68,0.82,1.68,1.97
			c0,1.72-0.92,3.29-2.59,3.29c-0.84,0-1.43-0.44-1.69-1.18L240.03,221.3z M239.32,225.39c0.27,0.52,0.95,1,1.93,1
			c2.24,0,3.79-2.03,3.79-4.38c0-1.74-0.85-3.06-2.64-3.06c-0.87,0-1.68,0.48-2.14,1.03l0.16-0.89h-1.21l-1.74,9.89h1.21
			L239.32,225.39z M224.59,224.25c0.11,1.27,1.14,2.14,2.82,2.14c1.5,0,2.76-0.85,2.76-2.32c0-0.87-0.5-1.45-1.58-1.79l-1.24-0.39
			c-0.55-0.19-0.82-0.4-0.82-0.82c0-0.73,0.68-1.11,1.48-1.11c0.89,0,1.34,0.42,1.47,1.05h1.16c-0.11-1.21-0.95-2.06-2.63-2.06
			c-1.47,0-2.67,0.9-2.67,2.24c0,1.03,0.6,1.48,1.51,1.76l1.24,0.37c0.63,0.21,0.9,0.48,0.9,0.92c0,0.81-0.73,1.14-1.58,1.14
			c-0.82,0-1.5-0.34-1.63-1.13H224.59z M210.51,226.25h1.21l0.85-4.83c0.4-0.76,1.22-1.35,2.09-1.35c0.89,0,1.29,0.48,1.29,1.22
			c0,0.15-0.02,0.29-0.05,0.47l-0.79,4.5h1.22l0.82-4.69c0.03-0.19,0.05-0.37,0.05-0.55c0-1.21-0.74-2.06-2.11-2.06
			c-0.98,0-1.8,0.5-2.29,1.06l0.16-0.92h-1.21L210.51,226.25z M203.56,216.35h-1.26l-1.74,9.89h1.26L203.56,216.35z M180.51,223.07
			c0.63,0,1.13,0.5,1.13,1.11c0,0.73-0.58,1.26-1.21,1.26s-1.14-0.5-1.14-1.11C179.29,223.6,179.87,223.07,180.51,223.07z
			 M180.39,226.39c1.29,0,2.22-1.08,2.22-2.24c0-1.14-0.89-2.05-2.05-2.05c-1.29,0-2.22,1.1-2.22,2.26
			C178.34,225.49,179.23,226.39,180.39,226.39z M173.89,226.25h1.08l7.85-9.89h-1.08L173.89,226.25z M176.2,219.53
			c-0.63,0-1.13-0.5-1.13-1.11c0-0.73,0.58-1.26,1.21-1.26s1.14,0.5,1.14,1.11C177.42,219,176.84,219.53,176.2,219.53z
			 M176.33,216.21c-1.29,0-2.22,1.08-2.22,2.24c0,1.14,0.9,2.05,2.05,2.05c1.29,0,2.22-1.1,2.22-2.26
			C178.37,217.11,177.49,216.21,176.33,216.21z M161.92,226.39c2.51,0,4.37-2.95,4.37-6.35c0-2.32-1.14-3.84-3.13-3.84
			c-2.51,0-4.38,2.93-4.38,6.35C158.78,224.88,159.94,226.39,161.92,226.39z M161.92,225.25c-1.26,0-1.9-1.1-1.9-2.69
			c0-2.55,1.18-5.2,3.14-5.2c1.26,0,1.9,1.1,1.9,2.69C165.06,222.59,163.87,225.25,161.92,225.25z M146.85,226.39
			c2.51,0,4.37-2.95,4.37-6.35c0-2.32-1.14-3.84-3.13-3.84c-2.51,0-4.38,2.93-4.38,6.35C143.71,224.88,144.87,226.39,146.85,226.39z
			 M146.85,225.25c-1.26,0-1.9-1.1-1.9-2.69c0-2.55,1.18-5.2,3.14-5.2c1.26,0,1.9,1.1,1.9,2.69
			C149.99,222.59,148.8,225.25,146.85,225.25z M136.29,216.34h-0.76l-3.19,1.5l-0.23,1.29l2.67-1.24l-1.47,8.36h1.22L136.29,216.34z
			"/>
	</g>
</g>
</svg>
